<svg xmlns="http://www.w3.org/2000/svg" width="1000" height="560" viewBox="0 0 1000 560">
  <rect width="100%" height="100%" fill="#fbfaf7"/>
  <text x="70" y="24" font-family="Arial, sans-serif" font-size="18" fill="#1f2933">Transformada de Goldbach - espectro de potencia</text>
  <line x1="70" y1="495" x2="970" y2="495" stroke="#1f2933" stroke-width="1"/>
  <line x1="70" y1="35" x2="70" y2="495" stroke="#1f2933" stroke-width="1"/>
  <polyline points="70.36,491.77 70.72,493.70 71.08,489.58 71.44,483.78 71.80,476.04 72.16,472.40 72.52,471.44 72.88,462.26 73.24,445.56 73.60,427.78 73.96,492.32 74.32,443.42 74.68,463.87 75.04,382.03 75.40,372.02 75.76,406.95 76.12,394.79 76.48,437.86 76.84,471.06 77.20,425.41 77.56,425.85 77.92,356.13 78.28,344.61 78.64,369.03 79.00,360.53 79.36,340.15 79.72,348.10 80.08,388.77 80.44,451.72 80.80,352.36 81.16,346.90 81.52,401.07 81.88,342.34 82.24,360.91 82.61,315.55 82.97,339.82 83.33,389.18 83.69,376.20 84.05,373.97 84.41,362.60 84.77,402.24 85.13,341.78 85.49,328.68 85.85,346.37 86.21,358.86 86.57,357.45 86.93,318.02 87.29,306.20 87.65,315.88 88.01,287.20 88.37,311.16 88.73,321.18 89.09,333.20 89.45,322.51 89.81,310.06 90.17,306.32 90.53,278.87 90.89,292.53 91.25,339.07 91.61,348.45 91.97,348.30 92.33,299.84 92.69,273.11 93.05,300.57 93.41,363.93 93.77,412.29 94.13,350.09 94.49,314.60 94.85,291.07 95.21,280.22 95.57,275.79 95.93,280.29 96.29,296.80 96.65,284.71 97.01,263.37 97.37,257.90 97.73,278.27 98.09,324.81 98.45,361.41 98.81,366.02 99.17,342.37 99.53,299.98 99.89,330.30 100.25,282.25 100.61,255.04 100.97,263.53 101.33,276.67 101.69,276.95 102.05,291.02 102.41,272.85 102.77,281.76 103.13,371.88 103.49,298.07 103.85,266.90 104.21,264.84 104.57,298.47 104.93,456.41 105.29,311.49 105.65,323.94 106.01,364.08 106.37,326.43 106.73,272.72 107.09,264.46 107.45,303.35 107.82,333.28 108.18,298.18 108.54,316.47 108.90,266.45 109.26,268.70 109.62,288.21 109.98,295.75 110.34,304.46 110.70,352.37 111.06,326.27 111.42,311.35 111.78,308.24 112.14,309.49 112.50,310.15 112.86,300.71 113.22,302.06 113.58,280.20 113.94,245.88 114.30,255.66 114.66,310.63 115.02,327.27 115.38,285.05 115.74,254.03 116.10,234.64 116.46,250.46 116.82,277.25 117.18,330.48 117.54,330.17 117.90,389.90 118.26,302.67 118.62,247.06 118.98,242.29 119.34,306.55 119.70,268.69 120.06,249.42 120.42,225.73 120.78,226.36 121.14,224.65 121.50,228.70 121.86,261.92 122.22,255.52 122.58,270.72 122.94,322.82 123.30,320.96 123.66,298.73 124.02,249.61 124.38,222.46 124.74,237.49 125.10,264.20 125.46,241.52 125.82,239.01 126.18,273.43 126.54,298.69 126.90,295.01 127.26,311.60 127.62,286.22 127.98,256.43 128.34,273.57 128.70,269.02 129.06,283.32 129.42,321.34 129.78,337.98 130.14,319.25 130.50,295.53 130.86,282.77 131.22,315.61 131.58,312.33 131.94,269.08 132.30,271.16 132.67,298.79 133.03,275.11 133.39,258.75 133.75,280.42 134.11,298.68 134.47,279.28 134.83,308.57 135.19,289.89 135.55,249.90 135.91,260.30 136.27,356.87 136.63,349.98 136.99,364.67 137.35,343.52 137.71,343.71 138.07,303.87 138.43,296.31 138.79,301.93 139.15,324.98 139.51,279.71 139.87,271.44 140.23,256.53 140.59,238.89 140.95,238.24 141.31,279.34 141.67,361.16 142.03,342.93 142.39,382.64 142.75,313.42 143.11,298.87 143.47,327.34 143.83,331.50 144.19,332.91 144.55,378.86 144.91,338.25 145.27,355.86 145.63,358.62 145.99,362.66 146.35,311.71 146.71,323.61 147.07,350.13 147.43,333.71 147.79,296.83 148.15,239.33 148.51,238.17 148.87,275.14 149.23,290.08 149.59,307.44 149.95,370.37 150.31,347.31 150.67,315.90 151.03,322.68 151.39,375.36 151.75,339.36 152.11,319.79 152.47,274.92 152.83,243.25 153.19,257.90 153.55,264.23 153.91,275.81 154.27,310.54 154.63,278.07 154.99,268.36 155.35,209.00 155.71,182.33 156.07,210.09 156.43,323.39 156.79,294.17 157.15,301.40 157.52,335.21 157.88,347.14 158.24,269.83 158.60,255.22 158.96,294.23 159.32,352.69 159.68,345.89 160.04,321.90 160.40,277.15 160.76,293.63 161.12,298.17 161.48,267.14 161.84,267.10 162.20,254.66 162.56,274.12 162.92,384.20 163.28,339.24 163.64,363.90 164.00,446.76 164.36,273.94 164.72,234.12 165.08,249.29 165.44,324.89 165.80,349.09 166.16,304.87 166.52,266.68 166.88,269.37 167.24,278.94 167.60,306.23 167.96,308.88 168.32,288.30 168.68,277.06 169.04,277.80 169.40,314.74 169.76,350.43 170.12,369.34 170.48,341.88 170.84,295.65 171.20,295.26 171.56,351.67 171.92,300.16 172.28,333.90 172.64,255.56 173.00,235.68 173.36,255.47 173.72,309.05 174.08,337.05 174.44,317.89 174.80,334.16 175.16,318.25 175.52,225.42 175.88,201.14 176.24,237.83 176.60,271.53 176.96,292.88 177.32,313.85 177.68,354.36 178.04,358.06 178.40,337.30 178.76,262.48 179.12,224.39 179.48,237.47 179.84,329.48 180.20,357.43 180.56,352.31 180.92,313.72 181.28,327.17 181.64,332.96 182.00,314.23 182.36,309.51 182.73,311.95 183.09,318.07 183.45,332.42 183.81,312.72 184.17,294.66 184.53,408.86 184.89,286.63 185.25,274.03 185.61,266.36 185.97,250.55 186.33,258.40 186.69,320.69 187.05,316.96 187.41,300.08 187.77,287.21 188.13,291.89 188.49,285.56 188.85,234.57 189.21,234.91 189.57,183.29 189.93,145.69 190.29,157.32 190.65,223.70 191.01,276.89 191.37,288.08 191.73,279.26 192.09,253.72 192.45,273.03 192.81,338.75 193.17,334.35 193.53,333.05 193.89,267.10 194.25,270.64 194.61,305.19 194.97,274.69 195.33,267.98 195.69,286.29 196.05,265.86 196.41,260.25 196.77,313.53 197.13,315.71 197.49,388.51 197.85,303.69 198.21,318.28 198.57,316.85 198.93,281.00 199.29,263.16 199.65,276.99 200.01,284.84 200.37,255.68 200.73,248.02 201.09,275.39 201.45,280.29 201.81,248.09 202.17,254.00 202.53,299.43 202.89,376.52 203.25,347.80 203.61,331.89 203.97,288.32 204.33,270.89 204.69,287.63 205.05,304.22 205.41,264.54 205.77,256.63 206.13,276.48 206.49,321.85 206.85,330.77 207.21,275.63 207.58,255.83 207.94,255.40 208.30,207.89 208.66,197.98 209.02,247.42 209.38,307.26 209.74,310.84 210.10,303.59 210.46,284.41 210.82,284.85 211.18,284.89 211.54,310.01 211.90,308.82 212.26,323.83 212.62,276.31 212.98,285.23 213.34,282.84 213.70,288.56 214.06,298.02 214.42,293.98 214.78,296.30 215.14,335.46 215.50,304.30 215.86,304.77 216.22,318.53 216.58,290.13 216.94,266.96 217.30,278.59 217.66,292.10 218.02,311.51 218.38,309.86 218.74,327.24 219.10,365.29 219.46,345.07 219.82,339.55 220.18,328.77 220.54,317.17 220.90,297.49 221.26,277.45 221.62,261.05 221.98,252.45 222.34,279.91 222.70,329.59 223.06,279.60 223.42,295.27 223.78,304.74 224.14,253.83 224.50,253.79 224.86,266.47 225.22,297.88 225.58,355.49 225.94,339.16 226.30,252.95 226.66,235.73 227.02,264.82 227.38,309.23 227.74,260.52 228.10,249.48 228.46,293.78 228.82,389.89 229.18,371.43 229.54,343.82 229.90,349.30 230.26,388.18 230.62,361.66 230.98,290.90 231.34,261.35 231.70,290.49 232.06,244.86 232.42,257.74 232.79,309.70 233.15,231.56 233.51,177.60 233.87,177.99 234.23,233.12 234.59,336.51 234.95,389.43 235.31,369.35 235.67,327.47 236.03,302.06 236.39,303.28 236.75,329.15 237.11,272.10 237.47,262.49 237.83,297.94 238.19,341.79 238.55,336.65 238.91,350.32 239.27,330.40 239.63,331.75 239.99,308.68 240.35,283.02 240.71,280.54 241.07,222.79 241.43,193.83 241.79,228.07 242.15,272.27 242.51,276.69 242.87,305.46 243.23,327.56 243.59,333.03 243.95,271.17 244.31,231.53 244.67,242.56 245.03,266.17 245.39,221.50 245.75,242.45 246.11,283.77 246.47,264.42 246.83,277.30 247.19,275.04 247.55,306.60 247.91,277.22 248.27,273.07 248.63,285.43 248.99,367.05 249.35,304.61 249.71,310.50 250.07,363.62 250.43,368.16 250.79,424.91 251.15,446.43 251.51,382.38 251.87,348.09 252.23,350.18 252.59,329.96 252.95,316.99 253.31,305.26 253.67,332.13 254.03,310.27 254.39,268.63 254.75,254.64 255.11,308.89 255.47,398.07 255.83,294.08 256.19,261.69 256.55,275.68 256.91,281.07 257.27,272.59 257.64,341.74 258.00,285.99 258.36,278.75 258.72,263.78 259.08,287.72 259.44,221.48 259.80,237.72 260.16,331.66 260.52,286.40 260.88,292.18 261.24,288.66 261.60,293.14 261.96,361.76 262.32,378.41 262.68,400.64 263.04,391.05 263.40,308.27 263.76,288.73 264.12,289.38 264.48,274.70 264.84,269.10 265.20,287.47 265.56,317.50 265.92,325.20 266.28,267.80 266.64,261.97 267.00,276.46 267.36,282.17 267.72,329.25 268.08,295.46 268.44,304.44 268.80,354.31 269.16,382.17 269.52,380.98 269.88,439.97 270.24,408.77 270.60,469.39 270.96,416.17 271.32,356.10 271.68,305.37 272.04,270.95 272.40,282.99 272.76,297.57 273.12,284.95 273.48,283.13 273.84,266.72 274.20,267.96 274.56,289.51 274.92,291.56 275.28,267.05 275.64,243.68 276.00,256.28 276.36,337.42 276.72,274.04 277.08,316.86 277.44,285.48 277.80,297.34 278.16,363.75 278.52,330.97 278.88,311.98 279.24,275.40 279.60,281.76 279.96,315.74 280.32,276.84 280.68,277.70 281.04,287.38 281.40,233.37 281.76,202.44 282.12,217.50 282.48,297.12 282.85,302.29 283.21,320.49 283.57,413.85 283.93,479.63 284.29,360.74 284.65,315.51 285.01,289.85 285.37,317.96 285.73,371.58 286.09,362.14 286.45,386.78 286.81,352.81 287.17,325.71 287.53,286.86 287.89,245.94 288.25,238.75 288.61,279.07 288.97,386.76 289.33,292.38 289.69,261.02 290.05,282.32 290.41,361.37 290.77,310.01 291.13,265.01 291.49,272.27 291.85,326.40 292.21,341.26 292.57,328.69 292.93,355.38 293.29,335.99 293.65,299.83 294.01,292.62 294.37,343.18 294.73,341.35 295.09,350.04 295.45,346.08 295.81,402.81 296.17,342.25 296.53,352.68 296.89,318.60 297.25,280.30 297.61,276.08 297.97,328.22 298.33,430.02 298.69,283.35 299.05,269.07 299.41,292.70 299.77,290.60 300.13,310.43 300.49,261.76 300.85,239.42 301.21,271.71 301.57,371.39 301.93,294.90 302.29,259.73 302.65,273.41 303.01,308.35 303.37,282.63 303.73,259.52 304.09,288.60 304.45,259.07 304.81,237.71 305.17,254.12 305.53,297.47 305.89,268.40 306.25,267.81 306.61,332.70 306.97,332.37 307.33,317.58 307.70,343.99 308.06,371.55 308.42,399.84 308.78,344.80 309.14,280.36 309.50,225.69 309.86,160.84 310.22,157.24 310.58,203.68 310.94,322.97 311.30,340.89 311.66,310.06 312.02,305.11 312.38,261.04 312.74,273.85 313.10,298.44 313.46,321.65 313.82,311.35 314.18,291.95 314.54,279.09 314.90,300.63 315.26,327.16 315.62,299.94 315.98,268.13 316.34,258.28 316.70,278.89 317.06,262.48 317.42,265.10 317.78,263.51 318.14,247.56 318.50,265.24 318.86,306.59 319.22,262.43 319.58,262.93 319.94,314.52 320.30,294.65 320.66,314.40 321.02,270.62 321.38,263.94 321.74,283.58 322.10,296.34 322.46,296.31 322.82,301.73 323.18,324.69 323.54,310.17 323.90,288.83 324.26,309.26 324.62,324.44 324.98,280.64 325.34,263.01 325.70,269.09 326.06,262.48 326.42,295.16 326.78,158.63 327.14,126.15 327.50,144.18 327.86,230.42 328.22,276.06 328.58,260.52 328.94,282.81 329.30,275.08 329.66,254.74 330.02,290.82 330.38,290.47 330.74,307.35 331.10,349.57 331.46,303.53 331.82,270.04 332.18,279.74 332.55,339.37 332.91,263.51 333.27,238.01 333.63,256.35 333.99,341.00 334.35,319.70 334.71,289.10 335.07,294.51 335.43,286.72 335.79,257.49 336.15,279.36 336.51,323.17 336.87,290.48 337.23,305.87 337.59,322.69 337.95,258.69 338.31,273.02 338.67,242.37 339.03,257.35 339.39,320.26 339.75,293.71 340.11,307.74 340.47,352.29 340.83,287.67 341.19,270.62 341.55,271.71 341.91,303.13 342.27,240.88 342.63,201.68 342.99,211.75 343.35,279.78 343.71,324.90 344.07,310.59 344.43,301.24 344.79,360.29 345.15,362.38 345.51,351.14 345.87,367.92 346.23,363.18 346.59,211.24 346.95,175.94 347.31,191.59 347.67,270.94 348.03,286.25 348.39,302.54 348.75,307.59 349.11,335.79 349.47,351.87 349.83,399.34 350.19,296.28 350.55,291.97 350.91,331.63 351.27,326.95 351.63,302.09 351.99,313.26 352.35,277.82 352.71,271.70 353.07,297.54 353.43,333.18 353.79,255.08 354.15,227.89 354.51,248.24 354.87,281.45 355.23,348.80 355.59,295.36 355.95,336.81 356.31,337.11 356.67,266.74 357.03,251.00 357.39,281.78 357.76,346.49 358.12,314.46 358.48,313.69 358.84,352.62 359.20,387.01 359.56,346.26 359.92,332.80 360.28,298.05 360.64,290.56 361.00,325.42 361.36,261.08 361.72,225.63 362.08,234.29 362.44,313.02 362.80,273.68 363.16,261.36 363.52,275.66 363.88,309.81 364.24,318.09 364.60,285.75 364.96,343.36 365.32,295.96 365.68,297.51 366.04,294.75 366.40,331.24 366.76,395.51 367.12,333.60 367.48,302.07 367.84,294.77 368.20,292.49 368.56,326.21 368.92,336.56 369.28,297.15 369.64,294.55 370.00,292.80 370.36,298.43 370.72,314.43 371.08,330.74 371.44,333.59 371.80,279.04 372.16,273.14 372.52,300.52 372.88,367.12 373.24,387.52 373.60,310.21 373.96,260.75 374.32,263.77 374.68,328.88 375.04,292.49 375.40,270.02 375.76,266.62 376.12,295.63 376.48,293.86 376.84,349.59 377.20,322.17 377.56,328.24 377.92,304.68 378.28,253.98 378.64,243.79 379.00,280.15 379.36,327.34 379.72,298.37 380.08,281.24 380.44,253.04 380.80,262.69 381.16,309.37 381.52,328.74 381.88,343.27 382.24,313.70 382.61,271.78 382.97,239.39 383.33,258.41 383.69,334.47 384.05,313.00 384.41,317.51 384.77,332.81 385.13,317.05 385.49,290.40 385.85,277.08 386.21,308.04 386.57,320.83 386.93,307.87 387.29,248.96 387.65,218.22 388.01,235.28 388.37,279.40 388.73,418.35 389.09,297.62 389.45,346.37 389.81,317.99 390.17,422.16 390.53,277.85 390.89,258.38 391.25,286.12 391.61,340.10 391.97,303.62 392.33,314.46 392.69,272.10 393.05,246.70 393.41,284.12 393.77,259.36 394.13,300.89 394.49,374.29 394.85,409.86 395.21,357.07 395.57,341.17 395.93,303.70 396.29,281.77 396.65,246.64 397.01,186.99 397.37,167.01 397.73,195.30 398.09,260.76 398.45,351.43 398.81,285.55 399.17,267.34 399.53,297.30 399.89,326.57 400.25,290.75 400.61,298.41 400.97,319.34 401.33,285.18 401.69,295.46 402.05,317.50 402.41,355.25 402.77,338.37 403.13,332.24 403.49,321.51 403.85,285.26 404.21,288.12 404.57,345.26 404.93,335.50 405.29,315.29 405.65,311.84 406.01,319.47 406.37,276.41 406.73,259.93 407.09,276.51 407.45,294.53 407.82,292.70 408.18,338.52 408.54,344.35 408.90,281.01 409.26,266.67 409.62,300.59 409.98,283.81 410.34,242.30 410.70,263.20 411.06,320.56 411.42,346.28 411.78,347.19 412.14,294.96 412.50,205.94 412.86,175.70 413.22,194.04 413.58,269.04 413.94,354.31 414.30,349.54 414.66,247.87 415.02,245.37 415.38,299.39 415.74,304.03 416.10,310.51 416.46,373.52 416.82,287.82 417.18,249.12 417.54,246.43 417.90,274.35 418.26,275.11 418.62,277.57 418.98,291.95 419.34,272.11 419.70,342.08 420.06,316.71 420.42,310.46 420.78,274.95 421.14,354.48 421.50,295.81 421.86,286.80 422.22,280.45 422.58,273.11 422.94,271.39 423.30,286.63 423.66,305.33 424.02,349.51 424.38,354.48 424.74,356.34 425.10,364.82 425.46,308.60 425.82,304.15 426.18,376.58 426.54,299.15 426.90,319.43 427.26,312.28 427.62,313.96 427.98,345.02 428.34,274.89 428.70,279.42 429.06,253.61 429.42,191.58 429.78,111.22 430.14,96.62 430.50,135.62 430.86,221.37 431.22,263.79 431.58,289.23 431.94,270.54 432.30,288.02 432.67,312.85 433.03,290.60 433.39,275.82 433.75,278.82 434.11,278.82 434.47,317.04 434.83,347.47 435.19,285.16 435.55,283.32 435.91,297.78 436.27,306.50 436.63,319.49 436.99,333.28 437.35,365.91 437.71,380.80 438.07,355.77 438.43,362.20 438.79,304.38 439.15,241.15 439.51,238.03 439.87,301.73 440.23,248.65 440.59,287.27 440.95,343.46 441.31,329.11 441.67,310.69 442.03,290.82 442.39,247.20 442.75,259.53 443.11,271.48 443.47,269.81 443.83,330.58 444.19,289.78 444.55,308.77 444.91,308.14 445.27,353.38 445.63,302.38 445.99,282.72 446.35,287.56 446.71,261.98 447.07,242.79 447.43,272.80 447.79,312.48 448.15,287.57 448.51,244.53 448.87,210.59 449.23,223.15 449.59,311.45 449.95,436.79 450.31,269.65 450.67,270.94 451.03,288.29 451.39,281.04 451.75,222.14 452.11,231.16 452.47,323.11 452.83,292.34 453.19,248.61 453.55,248.22 453.91,296.04 454.27,319.85 454.63,282.74 454.99,285.12 455.35,301.04 455.71,323.82 456.07,319.97 456.43,311.78 456.79,333.79 457.15,296.11 457.52,294.28 457.88,256.38 458.24,237.97 458.60,262.52 458.96,308.38 459.32,279.64 459.68,300.25 460.04,282.00 460.40,272.07 460.76,301.35 461.12,257.28 461.48,241.43 461.84,286.13 462.20,302.82 462.56,278.48 462.92,284.94 463.28,316.85 463.64,372.79 464.00,349.80 464.36,324.65 464.72,381.88 465.08,300.63 465.44,316.03 465.80,373.91 466.16,311.64 466.52,314.59 466.88,382.63 467.24,294.79 467.60,297.33 467.96,258.77 468.32,256.88 468.68,288.44 469.04,324.82 469.40,358.11 469.76,401.38 470.12,351.81 470.48,300.20 470.84,287.05 471.20,308.53 471.56,359.16 471.92,333.03 472.28,332.31 472.64,297.87 473.00,308.34 473.36,319.87 473.72,358.36 474.08,326.23 474.44,389.64 474.80,327.41 475.16,281.75 475.52,258.92 475.88,281.49 476.24,302.73 476.60,300.57 476.96,311.18 477.32,291.81 477.68,273.70 478.04,312.30 478.40,343.26 478.76,308.21 479.12,353.76 479.48,326.62 479.84,335.29 480.20,307.12 480.56,231.13 480.92,231.25 481.28,282.45 481.64,246.01 482.00,304.52 482.36,316.50 482.73,322.13 483.09,350.42 483.45,409.55 483.81,461.10 484.17,358.11 484.53,294.79 484.89,274.75 485.25,200.27 485.61,195.52 485.97,241.91 486.33,312.10 486.69,375.89 487.05,314.97 487.41,266.32 487.77,268.43 488.13,315.78 488.49,292.63 488.85,282.40 489.21,284.92 489.57,263.40 489.93,277.68 490.29,337.41 490.65,327.73 491.01,312.21 491.37,272.79 491.73,253.62 492.09,275.85 492.45,401.67 492.81,275.22 493.17,223.08 493.53,196.89 493.89,214.94 494.25,285.88 494.61,270.60 494.97,292.40 495.33,271.77 495.69,267.53 496.05,303.87 496.41,341.98 496.77,285.66 497.13,262.99 497.49,283.44 497.85,315.12 498.21,212.07 498.57,177.26 498.93,195.47 499.29,307.18 499.65,394.92 500.01,289.58 500.37,326.77 500.73,283.58 501.09,333.41 501.45,382.34 501.81,349.48 502.17,351.44 502.53,295.29 502.89,280.79 503.25,300.52 503.61,291.59 503.97,284.24 504.33,296.46 504.69,287.58 505.05,312.47 505.41,289.36 505.77,253.96 506.13,232.75 506.49,236.76 506.85,280.35 507.21,301.74 507.58,316.85 507.94,314.16 508.30,305.62 508.66,285.37 509.02,286.67 509.38,283.75 509.74,351.04 510.10,359.73 510.46,374.41 510.82,357.58 511.18,303.79 511.54,300.14 511.90,305.95 512.26,299.28 512.62,290.68 512.98,380.50 513.34,249.70 513.70,250.04 514.06,325.99 514.42,295.26 514.78,285.71 515.14,286.77 515.50,271.34 515.86,260.31 516.22,271.13 516.58,309.48 516.94,261.59 517.30,264.24 517.66,293.95 518.02,317.57 518.38,330.25 518.74,429.70 519.10,322.98 519.46,321.46 519.82,335.65 520.18,341.46 520.54,315.28 520.90,320.09 521.26,373.60 521.62,298.55 521.98,274.34 522.34,290.67 522.70,332.98 523.06,319.49 523.42,331.92 523.78,344.16 524.14,357.92 524.50,340.04 524.86,318.50 525.22,294.12 525.58,303.85 525.94,358.46 526.30,327.37 526.66,331.66 527.02,368.34 527.38,309.67 527.74,318.50 528.10,278.19 528.46,251.97 528.82,247.57 529.18,267.99 529.54,292.50 529.90,285.53 530.26,293.86 530.62,296.75 530.98,354.28 531.34,278.51 531.70,267.38 532.06,267.30 532.42,240.91 532.79,333.00 533.15,286.62 533.51,285.46 533.87,285.92 534.23,295.28 534.59,266.95 534.95,289.69 535.31,294.48 535.67,260.52 536.03,269.96 536.39,332.70 536.75,359.60 537.11,440.86 537.47,303.57 537.83,299.46 538.19,307.61 538.55,321.00 538.91,338.35 539.27,264.26 539.63,242.48 539.99,264.59 540.35,310.28 540.71,279.34 541.07,272.71 541.43,344.70 541.79,345.76 542.15,317.16 542.51,308.76 542.87,311.58 543.23,327.44 543.59,227.89 543.95,223.84 544.31,279.20 544.67,311.29 545.03,318.81 545.39,271.51 545.75,270.69 546.11,350.22 546.47,329.51 546.83,341.63 547.19,314.26 547.55,312.73 547.91,280.04 548.27,257.61 548.63,278.36 548.99,278.30 549.35,292.86 549.71,177.69 550.07,147.12 550.43,169.31 550.79,288.30 551.15,282.34 551.51,351.90 551.87,252.65 552.23,263.05 552.59,301.93 552.95,283.68 553.31,303.60 553.67,317.31 554.03,313.20 554.39,347.65 554.75,384.05 555.11,358.63 555.47,386.04 555.83,336.08 556.19,275.83 556.55,262.24 556.91,287.71 557.27,299.99 557.64,349.36 558.00,291.52 558.36,250.59 558.72,258.29 559.08,387.67 559.44,328.91 559.80,369.71 560.16,302.73 560.52,212.17 560.88,172.13 561.24,183.93 561.60,250.76 561.96,282.12 562.32,281.02 562.68,377.46 563.04,322.18 563.40,344.13 563.76,305.12 564.12,253.86 564.48,242.55 564.84,258.36 565.20,302.76 565.56,279.82 565.92,274.28 566.28,262.35 566.64,230.17 567.00,240.34 567.36,295.36 567.72,304.81 568.08,281.22 568.44,310.31 568.80,338.86 569.16,280.26 569.52,293.50 569.88,312.60 570.24,336.57 570.60,336.27 570.96,306.40 571.32,287.09 571.68,283.64 572.04,305.93 572.40,321.52 572.76,309.55 573.12,294.83 573.48,320.02 573.84,357.73 574.20,305.69 574.56,321.24 574.92,297.13 575.28,285.31 575.64,329.54 576.00,359.82 576.36,314.12 576.72,290.43 577.08,278.86 577.44,247.59 577.80,229.42 578.16,250.26 578.52,294.82 578.88,269.87 579.24,267.65 579.60,277.23 579.96,288.19 580.32,303.41 580.68,350.68 581.04,353.73 581.40,282.59 581.76,274.98 582.12,319.46 582.48,309.20 582.85,251.75 583.21,254.40 583.57,286.42 583.93,171.20 584.29,127.62 584.65,137.18 585.01,208.94 585.37,258.26 585.73,295.04 586.09,322.98 586.45,328.27 586.81,334.71 587.17,369.63 587.53,292.90 587.89,279.09 588.25,295.81 588.61,333.27 588.97,275.60 589.33,297.85 589.69,395.29 590.05,372.59 590.41,285.39 590.77,260.33 591.13,275.07 591.49,282.07 591.85,278.13 592.21,343.19 592.57,274.18 592.93,270.71 593.29,273.19 593.65,270.77 594.01,270.67 594.37,289.96 594.73,337.81 595.09,340.16 595.45,321.05 595.81,322.96 596.17,275.23 596.53,270.44 596.89,293.07 597.25,327.05 597.61,284.05 597.97,258.36 598.33,261.30 598.69,257.79 599.05,242.10 599.41,216.03 599.77,227.91 600.13,290.42 600.49,274.72 600.85,288.09 601.21,320.39 601.57,334.42 601.93,341.73 602.29,368.34 602.65,387.55 603.01,418.19 603.37,370.21 603.73,334.34 604.09,374.27 604.45,341.66 604.81,330.66 605.17,280.41 605.53,282.29 605.89,301.55 606.25,307.66 606.61,279.59 606.97,252.50 607.33,258.03 607.70,266.59 608.06,270.51 608.42,324.33 608.78,372.11 609.14,316.52 609.50,326.80 609.86,376.62 610.22,329.23 610.58,325.78 610.94,323.72 611.30,333.71 611.66,256.85 612.02,237.16 612.38,244.81 612.74,274.44 613.10,331.12 613.46,318.35 613.82,254.65 614.18,231.41 614.54,250.18 614.90,346.64 615.26,245.63 615.62,223.28 615.98,247.59 616.34,308.34 616.70,292.93 617.06,285.69 617.42,287.33 617.78,235.92 618.14,226.46 618.50,245.61 618.86,266.94 619.22,288.79 619.58,276.19 619.94,320.23 620.30,367.97 620.66,347.68 621.02,322.78 621.38,297.70 621.74,296.78 622.10,334.90 622.46,388.07 622.82,320.54 623.18,292.78 623.54,215.54 623.90,188.02 624.26,206.34 624.62,249.45 624.98,259.43 625.34,284.33 625.70,361.87 626.06,310.37 626.42,289.56 626.78,292.99 627.14,367.96 627.50,293.88 627.86,279.01 628.22,288.51 628.58,303.22 628.94,272.58 629.30,280.38 629.66,294.07 630.02,268.18 630.38,305.41 630.74,336.15 631.10,357.90 631.46,357.70 631.82,341.09 632.18,368.44 632.55,354.38 632.91,297.68 633.27,281.67 633.63,333.87 633.99,284.71 634.35,285.48 634.71,267.49 635.07,252.59 635.43,281.10 635.79,232.20 636.15,245.06 636.51,269.35 636.87,298.34 637.23,362.41 637.59,382.44 637.95,302.57 638.31,226.63 638.67,210.62 639.03,245.90 639.39,276.82 639.75,318.89 640.11,334.21 640.47,287.39 640.83,277.44 641.19,307.16 641.55,293.87 641.91,266.61 642.27,309.15 642.63,299.91 642.99,316.31 643.35,337.54 643.71,274.86 644.07,280.30 644.43,273.54 644.79,275.64 645.15,297.03 645.51,378.29 645.87,386.66 646.23,342.89 646.59,332.25 646.95,303.28 647.31,283.77 647.67,294.52 648.03,315.77 648.39,339.92 648.75,318.17 649.11,335.38 649.47,274.95 649.83,257.47 650.19,277.21 650.55,327.01 650.91,290.48 651.27,384.21 651.63,310.60 651.99,331.55 652.35,280.77 652.71,305.51 653.07,308.90 653.43,342.26 653.79,282.68 654.15,265.17 654.51,263.25 654.87,303.12 655.23,300.58 655.59,294.79 655.95,312.08 656.31,276.52 656.67,308.84 657.03,419.21 657.39,301.87 657.76,290.10 658.12,272.34 658.48,249.91 658.84,283.09 659.20,285.88 659.56,311.48 659.92,322.82 660.28,315.42 660.64,337.09 661.00,381.16 661.36,331.70 661.72,305.03 662.08,271.32 662.44,232.44 662.80,221.43 663.16,247.33 663.52,296.90 663.88,348.25 664.24,345.30 664.60,273.75 664.96,267.02 665.32,275.59 665.68,281.59 666.04,289.67 666.40,275.28 666.76,297.84 667.12,314.96 667.48,267.58 667.84,280.40 668.20,306.13 668.56,227.53 668.92,301.26 669.28,186.27 669.64,81.17 670.00,35.00 670.36,43.75 670.72,115.53 671.08,198.04 671.44,232.02 671.80,256.77 672.16,272.02 672.52,253.65 672.88,277.26 673.24,302.83 673.60,259.64 673.96,267.36 674.32,273.36 674.68,262.88 675.04,348.02 675.40,326.51 675.76,333.85 676.12,289.07 676.48,281.30 676.84,314.07 677.20,275.03 677.56,271.08 677.92,251.92 678.28,275.41 678.64,304.80 679.00,299.62 679.36,270.97 679.72,287.31 680.08,306.27 680.44,296.65 680.80,350.09 681.16,317.24 681.52,296.81 681.88,337.69 682.24,325.49 682.61,288.31 682.97,308.85 683.33,317.61 683.69,287.44 684.05,269.24 684.41,288.68 684.77,314.77 685.13,313.74 685.49,342.42 685.85,351.61 686.21,338.10 686.57,316.70 686.93,262.97 687.29,231.50 687.65,239.44 688.01,262.02 688.37,269.87 688.73,272.05 689.09,315.78 689.45,294.39 689.81,275.02 690.17,319.90 690.53,259.40 690.89,255.20 691.25,312.62 691.61,320.22 691.97,291.43 692.33,269.79 692.69,288.43 693.05,352.96 693.41,302.40 693.77,348.51 694.13,309.41 694.49,304.88 694.85,290.71 695.21,282.11 695.57,337.75 695.93,281.09 696.29,251.97 696.65,302.90 697.01,278.84 697.37,293.72 697.73,329.13 698.09,290.92 698.45,300.53 698.81,335.48 699.17,331.56 699.53,327.17 699.89,340.64 700.25,340.85 700.61,329.17 700.97,316.71 701.33,287.29 701.69,274.92 702.05,282.79 702.41,257.60 702.77,255.35 703.13,297.14 703.49,322.31 703.85,321.52 704.21,300.95 704.57,265.12 704.93,290.55 705.29,219.87 705.65,237.99 706.01,299.28 706.37,321.76 706.73,302.40 707.09,277.48 707.45,284.36 707.82,319.50 708.18,326.55 708.54,301.55 708.90,271.40 709.26,286.47 709.62,344.84 709.98,399.53 710.34,372.80 710.70,293.69 711.06,282.67 711.42,373.41 711.78,314.05 712.14,309.01 712.50,300.06 712.86,324.22 713.22,355.42 713.58,310.20 713.94,305.03 714.30,364.18 714.66,301.82 715.02,303.00 715.38,326.45 715.74,314.50 716.10,267.10 716.46,269.16 716.82,287.53 717.18,275.88 717.54,266.86 717.90,308.75 718.26,377.46 718.62,410.81 718.98,293.98 719.34,280.00 719.70,295.32 720.06,283.98 720.42,298.33 720.78,293.75 721.14,259.61 721.50,259.34 721.86,276.95 722.22,292.42 722.58,318.40 722.94,341.97 723.30,278.23 723.66,277.80 724.02,246.53 724.38,181.56 724.74,171.83 725.10,222.35 725.46,271.70 725.82,343.68 726.18,322.64 726.54,381.84 726.90,322.00 727.26,279.59 727.62,279.87 727.98,322.53 728.34,322.97 728.70,301.22 729.06,315.67 729.42,322.76 729.78,283.46 730.14,306.94 730.50,315.01 730.86,322.53 731.22,379.58 731.58,330.56 731.94,277.90 732.30,278.63 732.67,331.09 733.03,238.65 733.39,222.27 733.75,251.53 734.11,383.71 734.47,290.47 734.83,280.14 735.19,319.38 735.55,281.27 735.91,276.07 736.27,314.44 736.63,322.83 736.99,362.73 737.35,302.89 737.71,281.93 738.07,317.60 738.43,270.40 738.79,253.12 739.15,295.39 739.51,344.63 739.87,301.92 740.23,301.44 740.59,289.81 740.95,276.70 741.31,263.05 741.67,262.00 742.03,288.15 742.39,301.25 742.75,312.52 743.11,311.77 743.47,285.77 743.83,257.04 744.19,259.42 744.55,299.48 744.91,374.22 745.27,414.74 745.63,355.73 745.99,309.74 746.35,326.77 746.71,322.25 747.07,321.71 747.43,322.03 747.79,323.80 748.15,309.65 748.51,309.42 748.87,376.10 749.23,321.31 749.59,309.41 749.95,309.08 750.31,343.71 750.67,293.69 751.03,249.93 751.39,252.75 751.75,304.16 752.11,312.49 752.47,271.50 752.83,247.99 753.19,261.89 753.55,360.48 753.91,281.68 754.27,350.52 754.63,290.08 754.99,322.61 755.35,242.39 755.71,195.15 756.07,199.46 756.43,242.69 756.79,282.78 757.15,289.11 757.52,297.62 757.88,369.46 758.24,310.78 758.60,285.98 758.96,315.74 759.32,296.89 759.68,282.37 760.04,311.70 760.40,311.07 760.76,301.90 761.12,300.79 761.48,315.29 761.84,249.87 762.20,193.17 762.56,188.01 762.92,237.58 763.28,308.47 763.64,323.67 764.00,309.16 764.36,313.94 764.72,299.72 765.08,372.85 765.44,297.04 765.80,273.20 766.16,265.84 766.52,245.87 766.88,236.59 767.24,268.46 767.60,333.55 767.96,307.46 768.32,296.21 768.68,289.54 769.04,264.79 769.40,268.81 769.76,334.61 770.12,348.59 770.48,333.45 770.84,321.88 771.20,322.97 771.56,346.77 771.92,314.92 772.28,266.91 772.64,244.46 773.00,258.63 773.36,306.59 773.72,310.44 774.08,281.62 774.44,241.64 774.80,257.71 775.16,337.32 775.52,304.22 775.88,271.49 776.24,279.02 776.60,343.58 776.96,293.96 777.32,287.77 777.68,287.64 778.04,301.11 778.40,316.32 778.76,289.06 779.12,224.63 779.48,233.63 779.84,304.17 780.20,436.92 780.56,397.51 780.92,414.07 781.28,306.81 781.64,276.48 782.00,284.51 782.36,355.73 782.73,340.24 783.09,332.43 783.45,307.96 783.81,336.94 784.17,324.99 784.53,309.61 784.89,445.43 785.25,301.03 785.61,266.72 785.97,251.99 786.33,270.14 786.69,319.76 787.05,274.88 787.41,294.38 787.77,308.42 788.13,280.37 788.49,284.00 788.85,266.85 789.21,245.38 789.57,166.41 789.93,98.62 790.29,93.20 790.65,142.87 791.01,271.05 791.37,249.41 791.73,293.64 792.09,268.10 792.45,271.95 792.81,363.80 793.17,339.10 793.53,344.73 793.89,309.34 794.25,280.18 794.61,277.64 794.97,290.66 795.33,293.26 795.69,300.41 796.05,293.29 796.41,256.93 796.77,252.98 797.13,255.54 797.49,285.10 797.85,341.28 798.21,359.22 798.57,326.54 798.93,301.50 799.29,334.67 799.65,264.30 800.01,266.45 800.37,333.35 800.73,305.80 801.09,288.67 801.45,303.74 801.81,277.64 802.17,258.07 802.53,291.40 802.89,338.65 803.25,378.57 803.61,412.94 803.97,322.95 804.33,313.28 804.69,358.54 805.05,312.17 805.41,273.91 805.77,252.29 806.13,254.71 806.49,336.13 806.85,327.45 807.21,332.59 807.58,287.87 807.94,294.10 808.30,278.61 808.66,254.77 809.02,267.83 809.38,310.00 809.74,318.44 810.10,314.53 810.46,386.49 810.82,267.57 811.18,221.39 811.54,219.30 811.90,250.18 812.26,284.21 812.62,290.07 812.98,319.09 813.34,364.86 813.70,334.71 814.06,357.68 814.42,322.26 814.78,260.47 815.14,266.87 815.50,271.52 815.86,276.64 816.22,305.59 816.58,282.90 816.94,273.30 817.30,287.49 817.66,283.22 818.02,278.30 818.38,308.17 818.74,338.92 819.10,296.94 819.46,292.39 819.82,352.15 820.18,351.93 820.54,309.98 820.90,303.22 821.26,280.41 821.62,301.68 821.98,255.63 822.34,266.26 822.70,300.41 823.06,306.90 823.42,299.18 823.78,293.99 824.14,292.49 824.50,247.69 824.86,226.64 825.22,252.01 825.58,316.75 825.94,324.35 826.30,287.28 826.66,272.30 827.02,287.66 827.38,269.96 827.74,255.28 828.10,213.52 828.46,230.54 828.82,285.42 829.18,329.73 829.54,327.94 829.90,350.88 830.26,313.11 830.62,287.92 830.98,294.57 831.34,335.44 831.70,301.43 832.06,286.87 832.42,269.71 832.79,282.57 833.15,306.53 833.51,229.44 833.87,222.98 834.23,258.64 834.59,273.67 834.95,290.26 835.31,301.46 835.67,292.88 836.03,355.71 836.39,313.03 836.75,332.45 837.11,349.74 837.47,354.27 837.83,283.77 838.19,289.63 838.55,354.08 838.91,333.97 839.27,425.13 839.63,281.53 839.99,283.93 840.35,333.14 840.71,247.86 841.07,184.27 841.43,131.03 841.79,135.79 842.15,208.28 842.51,257.72 842.87,307.78 843.23,279.11 843.59,316.60 843.95,345.52 844.31,289.12 844.67,283.40 845.03,344.19 845.39,292.53 845.75,281.36 846.11,278.61 846.47,246.22 846.83,240.93 847.19,290.47 847.55,277.31 847.91,279.08 848.27,318.58 848.63,281.19 848.99,289.73 849.35,333.38 849.71,333.72 850.07,306.87 850.43,275.85 850.79,286.36 851.15,301.41 851.51,282.58 851.87,325.35 852.23,275.62 852.59,239.57 852.95,245.25 853.31,298.34 853.67,290.20 854.03,332.48 854.39,272.19 854.75,234.97 855.11,250.66 855.47,318.60 855.83,289.28 856.19,279.78 856.55,295.23 856.91,308.22 857.27,306.36 857.64,339.04 858.00,298.87 858.36,271.18 858.72,272.28 859.08,288.98 859.44,297.55 859.80,314.37 860.16,321.36 860.52,302.28 860.88,354.56 861.24,285.61 861.60,303.46 861.96,357.14 862.32,351.03 862.68,323.31 863.04,316.47 863.40,320.19 863.76,275.48 864.12,270.06 864.48,316.28 864.84,375.30 865.20,296.65 865.56,282.31 865.92,333.10 866.28,341.96 866.64,370.96 867.00,297.45 867.36,276.15 867.72,262.86 868.08,256.41 868.44,268.99 868.80,326.83 869.16,312.41 869.52,316.25 869.88,366.70 870.24,414.63 870.60,378.44 870.96,373.47 871.32,355.52 871.68,320.55 872.04,328.65 872.40,336.75 872.76,272.09 873.12,260.89 873.48,298.86 873.84,360.61 874.20,310.77 874.56,322.51 874.92,355.43 875.28,294.53 875.64,262.36 876.00,268.91 876.36,302.51 876.72,282.54 877.08,250.95 877.44,255.84 877.80,307.70 878.16,328.24 878.52,292.79 878.88,280.34 879.24,289.72 879.60,306.55 879.96,333.49 880.32,401.05 880.68,349.70 881.04,320.06 881.40,307.80 881.76,277.10 882.12,280.22 882.48,301.10 882.85,261.63 883.21,250.66 883.57,312.57 883.93,296.04 884.29,318.04 884.65,279.98 885.01,241.47 885.37,241.71 885.73,288.90 886.09,307.63 886.45,247.43 886.81,237.11 887.17,285.92 887.53,285.25 887.89,209.55 888.25,172.70 888.61,189.24 888.97,294.85 889.33,282.91 889.69,277.50 890.05,289.11 890.41,331.58 890.77,315.36 891.13,272.58 891.49,291.63 891.85,331.82 892.21,319.69 892.57,286.83 892.93,238.18 893.29,239.46 893.65,296.42 894.01,302.97 894.37,306.18 894.73,286.79 895.09,309.13 895.45,270.78 895.81,271.72 896.17,273.66 896.53,258.34 896.89,296.30 897.25,320.72 897.61,284.96 897.97,266.65 898.33,286.65 898.69,268.65 899.05,265.48 899.41,297.31 899.77,316.44 900.13,295.68 900.49,212.25 900.85,176.95 901.21,194.75 901.57,290.24 901.93,299.08 902.29,273.18 902.65,271.44 903.01,297.87 903.37,279.80 903.73,266.17 904.09,330.24 904.45,289.43 904.81,271.47 905.17,316.02 905.53,288.26 905.89,301.17 906.25,394.44 906.61,311.03 906.97,261.37 907.33,257.70 907.70,304.80 908.06,333.76 908.42,302.66 908.78,329.68 909.14,287.51 909.50,263.81 909.86,172.83 910.22,152.34 910.58,184.18 910.94,276.00 911.30,280.20 911.66,311.57 912.02,302.38 912.38,294.95 912.74,263.44 913.10,267.19 913.46,321.15 913.82,332.53 914.18,306.64 914.54,331.33 914.90,342.22 915.26,311.80 915.62,307.80 915.98,302.50 916.34,280.82 916.70,305.37 917.06,224.98 917.42,213.71 917.78,271.53 918.14,265.20 918.50,254.76 918.86,277.50 919.22,327.70 919.58,325.53 919.94,339.67 920.30,326.36 920.66,279.49 921.02,256.73 921.38,266.72 921.74,282.75 922.10,312.22 922.46,236.56 922.82,210.44 923.18,229.75 923.54,292.83 923.90,303.85 924.26,278.60 924.62,285.70 924.98,327.49 925.34,284.56 925.70,260.74 926.06,288.66 926.42,348.82 926.78,240.84 927.14,198.98 927.50,209.03 927.86,291.20 928.22,294.46 928.58,253.71 928.94,282.09 929.30,360.69 929.66,320.08 930.02,314.12 930.38,312.21 930.74,261.43 931.10,240.04 931.46,271.07 931.82,272.51 932.18,254.65 932.55,281.08 932.91,329.43 933.27,340.46 933.63,332.97 933.99,338.29 934.35,418.52 934.71,326.46 935.07,300.73 935.43,314.17 935.79,343.73 936.15,322.68 936.51,301.52 936.87,319.16 937.23,323.64 937.59,344.93 937.95,340.10 938.31,347.97 938.67,337.48 939.03,250.42 939.39,234.47 939.75,273.74 940.11,300.80 940.47,302.02 940.83,288.54 941.19,276.96 941.55,314.09 941.91,313.43 942.27,295.09 942.63,272.54 942.99,264.76 943.35,303.32 943.71,273.86 944.07,298.79 944.43,243.39 944.79,264.40 945.15,323.77 945.51,340.64 945.87,327.48 946.23,357.20 946.59,275.09 946.95,229.32 947.31,229.09 947.67,274.61 948.03,285.30 948.39,255.97 948.75,274.75 949.11,310.72 949.47,294.22 949.83,310.10 950.19,381.98 950.55,337.29 950.91,286.20 951.27,283.48 951.63,329.64 951.99,312.18 952.35,271.67 952.71,279.02 953.07,334.07 953.43,285.66 953.79,251.43 954.15,255.45 954.51,279.45 954.87,384.63 955.23,342.06 955.59,355.30 955.95,307.45 956.31,320.80 956.67,338.94 957.03,336.85 957.39,331.84 957.76,294.41 958.12,274.96 958.48,288.30 958.84,313.40 959.20,302.72 959.56,291.24 959.92,267.38 960.28,270.43 960.64,314.47 961.00,338.79 961.36,301.51 961.72,285.29 962.08,271.41 962.44,284.05 962.80,250.13 963.16,242.11 963.52,283.39 963.88,321.31 964.24,289.40 964.60,283.98 964.96,298.96 965.32,302.73 965.68,314.70 966.04,360.66 966.40,389.89 966.76,315.19 967.12,318.88 967.48,374.30 967.84,343.66 968.20,308.92 968.56,345.84 968.92,420.18 969.28,347.45 969.64,312.85 970.00,274.17" fill="none" stroke="#275d8c" stroke-width="1.5"/>
  <text x="70" y="536" font-family="Arial, sans-serif" font-size="12" fill="#1f2933">frecuencia normalizada por paso par; max=0.249950</text>
  <text x="16" y="53" font-family="Arial, sans-serif" font-size="12" fill="#1f2933" transform="rotate(-90 16,53)">log10(potencia + 1); max=9.409</text>
</svg>
