<svg xmlns="http://www.w3.org/2000/svg" width="1000" height="560" viewBox="0 0 1000 560">
  <rect width="100%" height="100%" fill="#fbfaf7"/>
  <text x="70" y="24" font-family="Arial, sans-serif" font-size="18" fill="#1f2933">Transformada de Goldbach - espectro de potencia</text>
  <line x1="70" y1="495" x2="970" y2="495" stroke="#1f2933" stroke-width="1"/>
  <line x1="70" y1="35" x2="70" y2="495" stroke="#1f2933" stroke-width="1"/>
  <polyline points="70.36,157.19 70.72,97.32 71.08,77.06 71.44,76.31 71.80,110.57 72.16,122.58 72.52,113.92 72.88,110.64 73.24,118.50 73.60,88.16 73.96,88.97 74.32,87.32 74.68,171.08 75.04,100.00 75.40,112.46 75.76,124.57 76.12,258.98 76.48,95.42 76.84,85.42 77.20,175.75 77.56,109.02 77.92,97.46 78.28,160.28 78.64,69.76 79.00,70.79 79.36,98.13 79.72,84.55 80.08,90.40 80.44,105.87 80.80,146.39 81.16,117.10 81.52,106.35 81.88,99.84 82.24,175.61 82.61,97.64 82.97,112.43 83.33,240.07 83.69,100.09 84.05,67.12 84.41,108.13 84.77,189.34 85.13,122.11 85.49,100.34 85.85,117.94 86.21,92.01 86.57,64.96 86.93,57.27 87.29,112.57 87.65,93.39 88.01,104.24 88.37,88.23 88.73,170.54 89.09,94.15 89.45,64.76 89.81,59.25 90.17,120.72 90.53,118.47 90.89,90.71 91.25,90.80 91.61,71.53 91.97,104.87 92.33,110.51 92.69,72.81 93.05,96.30 93.41,160.68 93.77,150.94 94.13,129.22 94.49,88.50 94.85,105.43 95.21,124.29 95.57,92.12 95.93,121.30 96.29,109.63 96.65,143.76 97.01,84.35 97.37,112.99 97.73,139.86 98.09,150.23 98.45,108.01 98.81,68.02 99.17,43.08 99.53,59.91 99.89,84.78 100.25,51.03 100.61,67.16 100.97,95.86 101.33,127.17 101.69,98.01 102.05,137.94 102.41,92.75 102.77,72.00 103.13,92.20 103.49,86.65 103.85,125.76 104.21,91.81 104.57,114.16 104.93,105.75 105.29,59.55 105.65,69.47 106.01,121.76 106.37,140.23 106.73,297.94 107.09,124.71 107.45,67.80 107.82,82.62 108.18,104.70 108.54,78.92 108.90,95.66 109.26,70.31 109.62,45.22 109.98,48.60 110.34,71.17 110.70,87.85 111.06,85.08 111.42,128.72 111.78,92.66 112.14,83.49 112.50,63.12 112.86,63.74 113.22,67.52 113.58,69.53 113.94,91.86 114.30,113.04 114.66,114.43 115.02,109.01 115.38,174.87 115.74,109.16 116.10,84.66 116.46,89.43 116.82,72.17 117.18,101.62 117.54,110.01 117.90,112.17 118.26,162.12 118.62,103.49 118.98,107.80 119.34,140.05 119.70,97.71 120.06,132.60 120.42,136.88 120.78,129.20 121.14,71.41 121.50,68.03 121.86,136.48 122.22,132.34 122.58,77.89 122.94,66.50 123.30,52.45 123.66,112.18 124.02,98.19 124.38,130.19 124.74,136.51 125.10,107.88 125.46,84.90 125.82,114.31 126.18,95.27 126.54,54.75 126.90,59.30 127.26,75.96 127.62,108.68 127.98,127.67 128.34,71.69 128.70,77.69 129.06,60.55 129.42,58.41 129.78,148.60 130.14,85.09 130.50,95.91 130.86,76.48 131.22,155.01 131.58,111.64 131.94,64.69 132.30,64.19 132.67,82.91 133.03,95.52 133.39,97.04 133.75,143.03 134.11,82.46 134.47,116.38 134.83,118.61 135.19,84.91 135.55,83.59 135.91,76.71 136.27,118.08 136.63,74.93 136.99,63.21 137.35,91.85 137.71,64.96 138.07,79.08 138.43,78.91 138.79,87.81 139.15,117.05 139.51,88.61 139.87,71.74 140.23,78.39 140.59,109.69 140.95,83.08 141.31,128.51 141.67,173.10 142.03,105.76 142.39,85.72 142.75,150.41 143.11,72.04 143.47,75.05 143.83,142.79 144.19,125.63 144.55,104.33 144.91,80.98 145.27,117.68 145.63,115.63 145.99,108.62 146.35,86.73 146.71,105.76 147.07,80.05 147.43,143.02 147.79,84.52 148.15,74.86 148.51,96.02 148.87,106.63 149.23,96.35 149.59,125.62 149.95,91.71 150.31,72.91 150.67,58.37 151.03,81.67 151.39,96.19 151.75,52.18 152.11,41.98 152.47,71.82 152.83,261.67 153.19,113.78 153.55,92.42 153.91,100.97 154.27,155.74 154.63,90.10 154.99,82.62 155.35,125.37 155.71,136.45 156.07,77.07 156.43,98.09 156.79,85.70 157.15,61.27 157.52,90.58 157.88,202.22 158.24,134.21 158.60,192.61 158.96,90.48 159.32,75.41 159.68,159.25 160.04,107.80 160.40,109.86 160.76,120.14 161.12,141.86 161.48,121.52 161.84,84.77 162.20,91.15 162.56,113.22 162.92,99.60 163.28,103.41 163.64,97.10 164.00,58.03 164.36,116.69 164.72,102.97 165.08,80.16 165.44,64.86 165.80,53.90 166.16,62.61 166.52,63.46 166.88,54.98 167.24,97.14 167.60,83.04 167.96,158.58 168.32,107.30 168.68,63.17 169.04,89.28 169.40,157.17 169.76,127.79 170.12,168.32 170.48,90.39 170.84,58.14 171.20,102.94 171.56,118.49 171.92,149.33 172.28,137.89 172.64,153.78 173.00,101.01 173.36,71.55 173.72,80.13 174.08,154.18 174.44,103.49 174.80,96.22 175.16,251.48 175.52,113.80 175.88,103.93 176.24,87.53 176.60,85.20 176.96,92.08 177.32,132.82 177.68,133.94 178.04,105.94 178.40,97.21 178.76,107.47 179.12,91.13 179.48,94.33 179.84,93.31 180.20,97.28 180.56,79.24 180.92,104.09 181.28,136.49 181.64,94.74 182.00,78.94 182.36,58.23 182.73,81.47 183.09,144.38 183.45,96.49 183.81,91.94 184.17,79.58 184.53,79.37 184.89,127.32 185.25,88.25 185.61,69.01 185.97,59.98 186.33,75.63 186.69,98.65 187.05,124.78 187.41,73.98 187.77,93.92 188.13,113.48 188.49,121.16 188.85,68.95 189.21,64.13 189.57,134.28 189.93,101.58 190.29,73.33 190.65,80.56 191.01,86.82 191.37,98.42 191.73,93.02 192.09,101.16 192.45,130.05 192.81,119.31 193.17,117.32 193.53,82.23 193.89,79.70 194.25,155.86 194.61,204.57 194.97,81.06 195.33,85.47 195.69,85.42 196.05,109.07 196.41,114.67 196.77,89.65 197.13,91.33 197.49,198.39 197.85,92.30 198.21,98.59 198.57,82.97 198.93,84.89 199.29,101.16 199.65,92.31 200.01,67.54 200.37,77.91 200.73,153.52 201.09,153.26 201.45,186.72 201.81,107.40 202.17,98.85 202.53,122.64 202.89,189.15 203.25,91.14 203.61,57.71 203.97,62.80 204.33,71.62 204.69,102.27 205.05,104.26 205.41,87.16 205.77,114.30 206.13,65.36 206.49,105.94 206.85,129.53 207.21,160.94 207.58,90.68 207.94,62.83 208.30,63.41 208.66,118.74 209.02,170.69 209.38,94.81 209.74,83.69 210.10,124.88 210.46,131.25 210.82,111.46 211.18,128.96 211.54,137.74 211.90,72.23 212.26,88.02 212.62,93.99 212.98,82.37 213.34,127.37 213.70,115.85 214.06,81.29 214.42,125.45 214.78,106.25 215.14,154.15 215.50,101.16 215.86,99.17 216.22,119.94 216.58,113.19 216.94,101.21 217.30,118.84 217.66,94.85 218.02,87.26 218.38,117.26 218.74,116.98 219.10,118.86 219.46,84.50 219.82,53.47 220.18,59.42 220.54,85.66 220.90,92.58 221.26,93.00 221.62,111.40 221.98,103.37 222.34,87.44 222.70,79.44 223.06,93.60 223.42,89.67 223.78,112.07 224.14,156.59 224.50,65.11 224.86,39.87 225.22,66.06 225.58,56.02 225.94,61.90 226.30,88.09 226.66,93.16 227.02,76.08 227.38,64.73 227.74,59.89 228.10,69.83 228.46,56.67 228.82,66.83 229.18,121.01 229.54,181.01 229.90,86.55 230.26,101.09 230.62,99.00 230.98,96.74 231.34,198.09 231.70,95.11 232.06,96.72 232.42,165.14 232.79,104.02 233.15,62.19 233.51,68.14 233.87,97.88 234.23,83.70 234.59,136.37 234.95,96.47 235.31,80.74 235.67,102.37 236.03,125.36 236.39,102.96 236.75,147.17 237.11,111.90 237.47,177.58 237.83,88.57 238.19,98.44 238.55,105.85 238.91,112.71 239.27,150.20 239.63,117.18 239.99,178.13 240.35,116.01 240.71,108.22 241.07,130.07 241.43,185.54 241.79,67.03 242.15,58.96 242.51,51.95 242.87,68.57 243.23,97.23 243.59,139.09 243.95,142.88 244.31,92.76 244.67,90.98 245.03,74.53 245.39,66.86 245.75,104.63 246.11,92.52 246.47,126.53 246.83,108.01 247.19,108.89 247.55,98.93 247.91,57.38 248.27,78.53 248.63,120.86 248.99,136.54 249.35,73.12 249.71,80.71 250.07,135.69 250.43,87.90 250.79,65.29 251.15,67.14 251.51,83.90 251.87,72.96 252.23,52.65 252.59,120.24 252.95,115.86 253.31,133.20 253.67,133.36 254.03,142.28 254.39,148.39 254.75,134.49 255.11,86.56 255.47,117.63 255.83,121.82 256.19,112.30 256.55,76.81 256.91,64.87 257.27,77.24 257.64,93.11 258.00,103.15 258.36,158.62 258.72,227.99 259.08,72.36 259.44,59.91 259.80,84.78 260.16,150.50 260.52,136.67 260.88,150.39 261.24,159.36 261.60,107.70 261.96,137.74 262.32,132.96 262.68,103.73 263.04,122.47 263.40,152.43 263.76,73.08 264.12,65.48 264.48,123.96 264.84,89.67 265.20,107.77 265.56,106.09 265.92,134.75 266.28,94.87 266.64,77.55 267.00,72.23 267.36,82.10 267.72,126.95 268.08,87.33 268.44,110.83 268.80,75.55 269.16,56.42 269.52,102.25 269.88,86.47 270.24,128.37 270.60,101.56 270.96,168.72 271.32,109.24 271.68,115.98 272.04,111.51 272.40,72.50 272.76,77.97 273.12,91.31 273.48,116.90 273.84,118.83 274.20,88.72 274.56,138.53 274.92,93.35 275.28,145.15 275.64,107.33 276.00,105.91 276.36,69.50 276.72,66.70 277.08,126.55 277.44,134.82 277.80,157.43 278.16,113.89 278.52,81.36 278.88,68.80 279.24,81.42 279.60,94.09 279.96,106.71 280.32,86.74 280.68,108.47 281.04,136.56 281.40,151.21 281.76,106.86 282.12,85.11 282.48,123.12 282.85,165.08 283.21,139.49 283.57,80.92 283.93,110.36 284.29,97.01 284.65,64.98 285.01,53.73 285.37,67.14 285.73,78.08 286.09,80.59 286.45,142.46 286.81,88.70 287.17,107.88 287.53,158.82 287.89,187.68 288.25,138.45 288.61,99.62 288.97,75.73 289.33,78.02 289.69,138.63 290.05,142.60 290.41,160.80 290.77,211.45 291.13,79.09 291.49,91.37 291.85,112.16 292.21,129.55 292.57,136.58 292.93,81.80 293.29,73.13 293.65,62.63 294.01,85.63 294.37,131.04 294.73,84.83 295.09,100.00 295.45,157.19 295.81,175.52 296.17,165.13 296.53,146.27 296.89,155.82 297.25,116.96 297.61,116.58 297.97,220.96 298.33,150.63 298.69,76.02 299.05,55.44 299.41,74.85 299.77,72.20 300.13,76.56 300.49,142.68 300.85,109.64 301.21,98.69 301.57,83.00 301.93,80.24 302.29,89.72 302.65,116.76 303.01,127.97 303.37,110.29 303.73,93.77 304.09,90.18 304.45,147.88 304.81,140.81 305.17,97.69 305.53,99.04 305.89,109.46 306.25,72.99 306.61,122.51 306.97,143.72 307.33,109.24 307.70,77.31 308.06,66.30 308.42,79.01 308.78,83.44 309.14,77.82 309.50,63.77 309.86,97.66 310.22,105.51 310.58,136.04 310.94,46.98 311.30,54.84 311.66,85.84 312.02,125.59 312.38,181.58 312.74,121.29 313.10,182.59 313.46,93.77 313.82,80.48 314.18,107.47 314.54,89.82 314.90,167.14 315.26,120.47 315.62,182.97 315.98,156.63 316.34,98.06 316.70,110.01 317.06,188.10 317.42,140.23 317.78,109.15 318.14,133.51 318.50,122.59 318.86,122.81 319.22,96.37 319.58,84.32 319.94,85.47 320.30,86.65 320.66,149.51 321.02,115.01 321.38,73.27 321.74,75.22 322.10,103.52 322.46,114.56 322.82,73.44 323.18,77.99 323.54,94.34 323.90,104.20 324.26,112.97 324.62,99.77 324.98,68.73 325.34,44.97 325.70,49.54 326.06,53.30 326.42,68.14 326.78,179.11 327.14,122.34 327.50,144.89 327.86,217.18 328.22,121.72 328.58,89.48 328.94,59.58 329.30,59.96 329.66,96.07 330.02,110.40 330.38,121.34 330.74,82.55 331.10,70.36 331.46,93.19 331.82,137.02 332.18,100.24 332.55,73.88 332.91,94.87 333.27,100.12 333.63,258.69 333.99,106.82 334.35,93.75 334.71,92.76 335.07,174.42 335.43,200.14 335.79,176.56 336.15,108.02 336.51,77.63 336.87,84.69 337.23,121.22 337.59,182.48 337.95,127.69 338.31,87.47 338.67,102.09 339.03,115.84 339.39,151.81 339.75,89.24 340.11,79.55 340.47,91.91 340.83,100.75 341.19,116.53 341.55,163.26 341.91,96.41 342.27,78.41 342.63,84.07 342.99,82.71 343.35,109.30 343.71,80.67 344.07,107.33 344.43,190.41 344.79,113.19 345.15,154.21 345.51,121.75 345.87,67.42 346.23,71.68 346.59,83.09 346.95,75.16 347.31,91.76 347.67,144.39 348.03,96.20 348.39,75.59 348.75,60.39 349.11,81.90 349.47,153.15 349.83,68.97 350.19,47.41 350.55,50.42 350.91,89.86 351.27,135.35 351.63,123.81 351.99,158.78 352.35,136.40 352.71,106.53 353.07,76.20 353.43,62.16 353.79,97.67 354.15,85.79 354.51,59.79 354.87,55.01 355.23,51.28 355.59,64.35 355.95,156.69 356.31,96.68 356.67,83.39 357.03,101.25 357.39,105.94 357.76,138.05 358.12,92.36 358.48,71.47 358.84,61.46 359.20,64.97 359.56,74.16 359.92,110.23 360.28,127.86 360.64,90.02 361.00,78.37 361.36,106.97 361.72,90.90 362.08,47.77 362.44,49.34 362.80,79.07 363.16,83.11 363.52,67.33 363.88,81.28 364.24,100.69 364.60,114.81 364.96,170.22 365.32,117.64 365.68,77.84 366.04,116.21 366.40,101.48 366.76,174.12 367.12,64.45 367.48,74.28 367.84,124.88 368.20,159.19 368.56,113.25 368.92,154.26 369.28,83.47 369.64,76.80 370.00,123.26 370.36,123.07 370.72,100.62 371.08,109.37 371.44,165.51 371.80,290.27 372.16,162.33 372.52,146.65 372.88,123.51 373.24,117.66 373.60,103.12 373.96,49.93 374.32,45.30 374.68,74.17 375.04,152.46 375.40,116.16 375.76,118.97 376.12,134.77 376.48,100.62 376.84,130.87 377.20,96.44 377.56,90.42 377.92,76.77 378.28,137.82 378.64,117.65 379.00,92.28 379.36,115.23 379.72,159.35 380.08,117.71 380.44,170.03 380.80,74.49 381.16,66.18 381.52,128.39 381.88,137.23 382.24,155.03 382.61,105.86 382.97,104.13 383.33,160.29 383.69,258.18 384.05,130.87 384.41,74.38 384.77,122.75 385.13,122.41 385.49,86.02 385.85,87.07 386.21,177.37 386.57,116.26 386.93,105.61 387.29,105.36 387.65,111.30 388.01,144.78 388.37,110.55 388.73,58.07 389.09,55.22 389.45,68.05 389.81,85.63 390.17,123.76 390.53,77.92 390.89,60.06 391.25,95.06 391.61,103.09 391.97,86.73 392.33,100.17 392.69,136.52 393.05,81.99 393.41,86.86 393.77,148.94 394.13,90.34 394.49,92.72 394.85,125.79 395.21,86.70 395.57,103.85 395.93,103.24 396.29,127.42 396.65,71.29 397.01,79.89 397.37,81.29 397.73,112.52 398.09,104.53 398.45,104.20 398.81,84.44 399.17,68.36 399.53,74.11 399.89,99.04 400.25,92.59 400.61,79.26 400.97,91.13 401.33,71.45 401.69,67.94 402.05,87.12 402.41,91.06 402.77,63.44 403.13,99.41 403.49,76.39 403.85,79.89 404.21,115.45 404.57,123.53 404.93,138.67 405.29,98.73 405.65,123.74 406.01,125.46 406.37,81.43 406.73,65.99 407.09,92.61 407.45,115.23 407.82,137.40 408.18,104.27 408.54,63.48 408.90,50.32 409.26,81.40 409.62,75.03 409.98,82.42 410.34,88.04 410.70,100.03 411.06,88.91 411.42,71.28 411.78,74.16 412.14,117.18 412.50,87.52 412.86,82.56 413.22,93.53 413.58,145.98 413.94,112.09 414.30,116.16 414.66,176.70 415.02,82.57 415.38,93.09 415.74,169.12 416.10,154.00 416.46,127.53 416.82,87.88 417.18,177.00 417.54,94.49 417.90,108.28 418.26,67.04 418.62,55.27 418.98,50.51 419.34,48.74 419.70,46.37 420.06,63.28 420.42,109.98 420.78,99.64 421.14,101.22 421.50,126.83 421.86,117.99 422.22,85.24 422.58,90.01 422.94,115.70 423.30,105.56 423.66,75.38 424.02,67.64 424.38,137.32 424.74,84.11 425.10,82.78 425.46,107.03 425.82,140.14 426.18,101.57 426.54,177.67 426.90,150.54 427.26,143.13 427.62,139.11 427.98,68.79 428.34,66.96 428.70,147.55 429.06,67.16 429.42,87.94 429.78,139.39 430.14,115.44 430.50,140.43 430.86,115.99 431.22,61.46 431.58,89.18 431.94,117.66 432.30,86.72 432.67,138.89 433.03,97.56 433.39,71.32 433.75,79.18 434.11,90.94 434.47,117.69 434.83,117.11 435.19,105.55 435.55,159.85 435.91,110.58 436.27,99.76 436.63,113.84 436.99,183.06 437.35,105.13 437.71,122.29 438.07,169.81 438.43,134.30 438.79,130.07 439.15,79.52 439.51,110.15 439.87,127.67 440.23,101.55 440.59,61.62 440.95,72.93 441.31,117.20 441.67,108.26 442.03,96.16 442.39,101.39 442.75,128.45 443.11,150.48 443.47,76.47 443.83,118.49 444.19,98.91 444.55,95.52 444.91,98.30 445.27,78.46 445.63,44.58 445.99,73.58 446.35,93.70 446.71,68.81 447.07,115.20 447.43,72.77 447.79,86.87 448.15,169.33 448.51,121.23 448.87,121.89 449.23,90.85 449.59,50.96 449.95,68.27 450.31,86.69 450.67,115.02 451.03,91.59 451.39,95.85 451.75,105.54 452.11,79.74 452.47,92.28 452.83,88.74 453.19,97.78 453.55,162.00 453.91,146.04 454.27,134.27 454.63,92.01 454.99,119.04 455.35,139.99 455.71,122.32 456.07,181.92 456.43,86.63 456.79,65.18 457.15,67.36 457.52,140.00 457.88,85.02 458.24,57.66 458.60,59.74 458.96,73.08 459.32,140.38 459.68,190.63 460.04,155.50 460.40,121.86 460.76,156.78 461.12,105.38 461.48,115.06 461.84,77.34 462.20,70.16 462.56,85.32 462.92,114.50 463.28,137.45 463.64,302.17 464.00,92.25 464.36,164.19 464.72,82.27 465.08,92.40 465.44,118.01 465.80,145.83 466.16,141.51 466.52,127.19 466.88,135.44 467.24,102.08 467.60,186.72 467.96,133.67 468.32,78.54 468.68,108.70 469.04,140.18 469.40,135.70 469.76,69.89 470.12,68.03 470.48,151.79 470.84,122.72 471.20,85.11 471.56,73.01 471.92,123.38 472.28,107.94 472.64,105.86 473.00,73.11 473.36,114.94 473.72,82.36 474.08,89.72 474.44,125.72 474.80,133.48 475.16,115.26 475.52,110.60 475.88,159.70 476.24,114.99 476.60,128.91 476.96,90.71 477.32,104.62 477.68,132.81 478.04,146.80 478.40,125.05 478.76,106.36 479.12,124.82 479.48,169.28 479.84,94.71 480.20,99.49 480.56,99.16 480.92,86.21 481.28,84.86 481.64,90.43 482.00,88.91 482.36,73.39 482.73,67.45 483.09,92.49 483.45,111.90 483.81,135.46 484.17,89.52 484.53,102.24 484.89,114.82 485.25,149.36 485.61,94.46 485.97,108.42 486.33,193.04 486.69,276.30 487.05,98.77 487.41,124.35 487.77,125.57 488.13,106.28 488.49,63.79 488.85,71.52 489.21,88.70 489.57,97.74 489.93,141.13 490.29,126.64 490.65,153.72 491.01,96.18 491.37,74.15 491.73,96.82 492.09,98.96 492.45,75.86 492.81,85.23 493.17,127.29 493.53,126.66 493.89,82.42 494.25,104.25 494.61,101.52 494.97,94.29 495.33,97.02 495.69,75.89 496.05,87.03 496.41,86.81 496.77,53.52 497.13,66.31 497.49,94.70 497.85,89.62 498.21,75.23 498.57,68.63 498.93,130.50 499.29,88.58 499.65,68.22 500.01,98.78 500.37,107.75 500.73,95.07 501.09,106.23 501.45,105.52 501.81,100.01 502.17,74.15 502.53,83.83 502.89,130.17 503.25,145.03 503.61,82.10 503.97,69.52 504.33,83.13 504.69,76.07 505.05,82.18 505.41,95.35 505.77,67.94 506.13,78.53 506.49,192.85 506.85,93.05 507.21,64.40 507.58,60.49 507.94,102.14 508.30,118.43 508.66,116.12 509.02,123.45 509.38,119.14 509.74,183.21 510.10,104.04 510.46,94.06 510.82,129.24 511.18,114.28 511.54,79.27 511.90,88.25 512.26,88.42 512.62,87.59 512.98,97.56 513.34,134.69 513.70,154.46 514.06,132.59 514.42,126.37 514.78,79.50 515.14,74.47 515.50,69.81 515.86,118.68 516.22,94.91 516.58,94.56 516.94,84.72 517.30,95.64 517.66,135.98 518.02,87.78 518.38,87.55 518.74,112.30 519.10,108.20 519.46,128.29 519.82,98.98 520.18,85.93 520.54,155.91 520.90,91.65 521.26,132.53 521.62,152.09 521.98,119.48 522.34,112.87 522.70,88.76 523.06,56.42 523.42,94.42 523.78,219.76 524.14,102.49 524.50,68.19 524.86,77.28 525.22,117.58 525.58,104.33 525.94,134.36 526.30,66.37 526.66,54.77 527.02,124.21 527.38,134.59 527.74,99.14 528.10,54.55 528.46,42.79 528.82,74.68 529.18,118.31 529.54,96.36 529.90,107.05 530.26,104.17 530.62,174.42 530.98,124.85 531.34,112.84 531.70,68.98 532.06,164.57 532.42,68.43 532.79,108.85 533.15,93.75 533.51,69.11 533.87,138.71 534.23,71.18 534.59,55.85 534.95,64.89 535.31,95.84 535.67,94.73 536.03,80.72 536.39,106.12 536.75,108.61 537.11,114.09 537.47,109.54 537.83,81.49 538.19,167.21 538.55,80.80 538.91,71.88 539.27,103.04 539.63,59.04 539.99,104.71 540.35,92.11 540.71,99.00 541.07,124.47 541.43,176.26 541.79,82.24 542.15,85.86 542.51,129.68 542.87,107.02 543.23,120.30 543.59,131.76 543.95,97.19 544.31,102.54 544.67,82.06 545.03,54.96 545.39,78.79 545.75,89.78 546.11,81.14 546.47,59.52 546.83,46.76 547.19,72.64 547.55,94.23 547.91,67.25 548.27,100.86 548.63,159.55 548.99,185.88 549.35,124.07 549.71,109.09 550.07,122.67 550.43,89.95 550.79,98.17 551.15,88.48 551.51,65.40 551.87,84.38 552.23,109.92 552.59,93.08 552.95,86.60 553.31,107.23 553.67,99.11 554.03,117.27 554.39,149.63 554.75,192.56 555.11,94.82 555.47,71.30 555.83,68.27 556.19,57.47 556.55,95.60 556.91,133.53 557.27,94.98 557.64,86.15 558.00,117.29 558.36,73.88 558.72,51.15 559.08,73.19 559.44,108.16 559.80,100.44 560.16,99.09 560.52,86.06 560.88,68.98 561.24,135.47 561.60,108.41 561.96,88.51 562.32,74.44 562.68,117.11 563.04,107.95 563.40,104.05 563.76,94.97 564.12,75.81 564.48,115.17 564.84,145.32 565.20,79.44 565.56,75.78 565.92,76.24 566.28,53.71 566.64,68.60 567.00,122.72 567.36,64.83 567.72,64.49 568.08,129.87 568.44,73.01 568.80,109.13 569.16,95.86 569.52,63.14 569.88,64.33 570.24,117.05 570.60,112.06 570.96,123.81 571.32,108.37 571.68,76.11 572.04,54.82 572.40,61.68 572.76,87.16 573.12,94.56 573.48,129.24 573.84,82.91 574.20,99.18 574.56,206.42 574.92,181.00 575.28,85.91 575.64,59.65 576.00,104.10 576.36,174.89 576.72,84.38 577.08,64.32 577.44,106.53 577.80,145.73 578.16,174.64 578.52,135.29 578.88,122.95 579.24,75.62 579.60,59.54 579.96,95.26 580.32,179.14 580.68,98.61 581.04,66.51 581.40,69.99 581.76,84.46 582.12,112.33 582.48,140.77 582.85,150.14 583.21,105.67 583.57,101.58 583.93,116.89 584.29,139.93 584.65,142.94 585.01,95.18 585.37,139.98 585.73,172.07 586.09,142.31 586.45,85.77 586.81,90.93 587.17,147.04 587.53,128.96 587.89,67.90 588.25,65.62 588.61,132.82 588.97,240.24 589.33,186.68 589.69,135.35 590.05,96.23 590.41,82.36 590.77,105.01 591.13,158.25 591.49,86.27 591.85,76.14 592.21,101.32 592.57,89.02 592.93,91.16 593.29,116.28 593.65,115.94 594.01,285.52 594.37,166.81 594.73,104.00 595.09,65.81 595.45,71.85 595.81,113.91 596.17,85.59 596.53,87.72 596.89,80.15 597.25,96.86 597.61,104.94 597.97,92.04 598.33,144.30 598.69,76.03 599.05,78.57 599.41,113.80 599.77,130.20 600.13,147.68 600.49,104.51 600.85,120.03 601.21,83.49 601.57,43.02 601.93,88.90 602.29,83.25 602.65,63.38 603.01,75.68 603.37,133.03 603.73,82.50 604.09,98.40 604.45,66.90 604.81,97.99 605.17,168.94 605.53,108.37 605.89,77.87 606.25,119.01 606.61,109.26 606.97,220.79 607.33,97.06 607.70,90.39 608.06,94.13 608.42,93.30 608.78,122.42 609.14,217.89 609.50,134.66 609.86,80.22 610.22,61.57 610.58,59.46 610.94,82.51 611.30,164.78 611.66,128.82 612.02,129.12 612.38,135.10 612.74,156.62 613.10,167.17 613.46,130.58 613.82,82.08 614.18,61.15 614.54,78.06 614.90,133.07 615.26,152.18 615.62,78.90 615.98,70.89 616.34,64.12 616.70,93.12 617.06,101.46 617.42,105.71 617.78,65.47 618.14,143.47 618.50,114.09 618.86,125.33 619.22,108.51 619.58,134.01 619.94,127.47 620.30,100.18 620.66,100.44 621.02,119.53 621.38,112.64 621.74,88.20 622.10,84.59 622.46,114.39 622.82,114.49 623.18,133.11 623.54,67.14 623.90,91.85 624.26,146.59 624.62,84.95 624.98,94.75 625.34,136.49 625.70,127.33 626.06,132.08 626.42,104.72 626.78,85.62 627.14,77.01 627.50,97.10 627.86,122.00 628.22,119.41 628.58,85.17 628.94,93.38 629.30,118.06 629.66,97.71 630.02,90.72 630.38,106.82 630.74,151.80 631.10,124.24 631.46,107.79 631.82,74.86 632.18,63.01 632.55,53.15 632.91,70.66 633.27,144.75 633.63,134.73 633.99,110.49 634.35,78.93 634.71,80.89 635.07,215.80 635.43,87.68 635.79,93.45 636.15,111.92 636.51,67.66 636.87,71.06 637.23,67.80 637.59,84.87 637.95,129.74 638.31,142.94 638.67,134.02 639.03,142.73 639.39,143.78 639.75,108.02 640.11,141.12 640.47,135.22 640.83,142.37 641.19,196.36 641.55,127.23 641.91,98.69 642.27,70.84 642.63,70.08 642.99,89.01 643.35,128.40 643.71,165.89 644.07,89.27 644.43,112.27 644.79,80.59 645.15,55.75 645.51,81.84 645.87,109.30 646.23,97.69 646.59,71.02 646.95,87.80 647.31,89.34 647.67,72.97 648.03,97.13 648.39,124.59 648.75,138.14 649.11,101.81 649.47,88.25 649.83,60.60 650.19,87.35 650.55,183.66 650.91,128.36 651.27,107.46 651.63,153.33 651.99,77.33 652.35,94.68 652.71,155.95 653.07,110.86 653.43,64.57 653.79,53.23 654.15,80.24 654.51,149.95 654.87,72.80 655.23,81.13 655.59,128.32 655.95,74.89 656.31,64.18 656.67,128.99 657.03,81.99 657.39,117.33 657.76,80.45 658.12,79.22 658.48,80.76 658.84,69.41 659.20,66.88 659.56,91.80 659.92,172.01 660.28,112.43 660.64,88.89 661.00,98.04 661.36,179.54 661.72,96.63 662.08,58.23 662.44,70.21 662.80,104.97 663.16,117.29 663.52,110.26 663.88,76.41 664.24,75.14 664.60,69.08 664.96,105.02 665.32,175.79 665.68,100.00 666.04,145.00 666.40,119.18 666.76,95.02 667.12,73.26 667.48,111.93 667.84,103.57 668.20,95.74 668.56,98.71 668.92,77.90 669.28,56.94 669.64,67.06 670.00,88.21 670.36,66.36 670.72,72.89 671.08,124.60 671.44,236.37 671.80,130.18 672.16,73.62 672.52,63.59 672.88,100.46 673.24,232.36 673.60,103.68 673.96,98.35 674.32,128.74 674.68,180.44 675.04,196.00 675.40,102.16 675.76,69.72 676.12,102.22 676.48,105.97 676.84,86.89 677.20,130.59 677.56,78.08 677.92,77.44 678.28,104.79 678.64,161.24 679.00,113.74 679.36,97.58 679.72,111.27 680.08,111.24 680.44,70.97 680.80,77.06 681.16,92.88 681.52,89.07 681.88,78.35 682.24,68.82 682.61,97.60 682.97,81.59 683.33,109.45 683.69,90.81 684.05,104.62 684.41,100.75 684.77,156.68 685.13,141.24 685.49,97.80 685.85,44.08 686.21,50.60 686.57,95.59 686.93,118.21 687.29,68.93 687.65,67.52 688.01,83.41 688.37,132.23 688.73,143.16 689.09,135.61 689.45,93.09 689.81,79.54 690.17,131.74 690.53,127.90 690.89,153.28 691.25,79.50 691.61,74.96 691.97,91.53 692.33,111.58 692.69,69.93 693.05,74.20 693.41,147.68 693.77,112.75 694.13,138.46 694.49,100.43 694.85,86.17 695.21,117.45 695.57,132.24 695.93,120.70 696.29,78.49 696.65,90.10 697.01,90.42 697.37,121.71 697.73,135.45 698.09,112.10 698.45,99.92 698.81,85.48 699.17,94.40 699.53,105.42 699.89,95.41 700.25,77.50 700.61,84.70 700.97,83.71 701.33,118.20 701.69,116.71 702.05,209.81 702.41,142.71 702.77,103.22 703.13,107.96 703.49,80.02 703.85,111.43 704.21,69.73 704.57,85.47 704.93,124.73 705.29,186.18 705.65,173.06 706.01,130.93 706.37,108.44 706.73,132.89 707.09,144.43 707.45,93.66 707.82,71.42 708.18,72.90 708.54,75.33 708.90,72.19 709.26,93.83 709.62,107.90 709.98,86.21 710.34,180.90 710.70,131.22 711.06,73.70 711.42,54.11 711.78,54.62 712.14,86.77 712.50,54.44 712.86,58.53 713.22,169.29 713.58,86.07 713.94,80.21 714.30,64.92 714.66,77.00 715.02,106.06 715.38,77.45 715.74,61.29 716.10,71.78 716.46,92.91 716.82,133.49 717.18,113.86 717.54,122.40 717.90,125.83 718.26,75.88 718.62,51.88 718.98,155.22 719.34,98.75 719.70,102.92 720.06,60.78 720.42,70.73 720.78,200.43 721.14,131.61 721.50,243.66 721.86,135.72 722.22,66.82 722.58,59.54 722.94,124.69 723.30,126.59 723.66,104.24 724.02,94.64 724.38,111.47 724.74,88.86 725.10,91.94 725.46,124.23 725.82,111.86 726.18,199.16 726.54,117.66 726.90,135.69 727.26,163.65 727.62,140.83 727.98,87.00 728.34,64.58 728.70,64.83 729.06,88.05 729.42,116.33 729.78,112.28 730.14,71.63 730.50,70.22 730.86,102.09 731.22,100.97 731.58,106.96 731.94,120.81 732.30,80.30 732.67,56.83 733.03,62.51 733.39,84.43 733.75,135.27 734.11,121.69 734.47,59.72 734.83,65.53 735.19,84.57 735.55,86.44 735.91,110.75 736.27,113.30 736.63,77.29 736.99,88.95 737.35,141.63 737.71,104.73 738.07,67.87 738.43,104.29 738.79,250.56 739.15,125.24 739.51,59.73 739.87,45.54 740.23,77.30 740.59,69.75 740.95,84.06 741.31,82.65 741.67,117.19 742.03,179.86 742.39,179.19 742.75,142.89 743.11,132.31 743.47,117.23 743.83,99.35 744.19,105.97 744.55,69.62 744.91,68.20 745.27,100.15 745.63,90.42 745.99,103.39 746.35,92.26 746.71,84.30 747.07,67.18 747.43,66.15 747.79,92.94 748.15,84.80 748.51,129.23 748.87,109.08 749.23,104.98 749.59,139.03 749.95,125.88 750.31,111.06 750.67,89.01 751.03,115.12 751.39,87.57 751.75,101.46 752.11,144.31 752.47,109.76 752.83,117.22 753.19,115.76 753.55,64.56 753.91,65.89 754.27,97.09 754.63,96.40 754.99,94.14 755.35,167.48 755.71,105.98 756.07,133.16 756.43,209.46 756.79,123.28 757.15,134.22 757.52,100.65 757.88,63.96 758.24,101.41 758.60,136.80 758.96,157.72 759.32,125.21 759.68,76.27 760.04,89.02 760.40,118.25 760.76,122.11 761.12,76.98 761.48,136.58 761.84,69.79 762.20,67.22 762.56,109.96 762.92,97.20 763.28,156.32 763.64,113.67 764.00,76.56 764.36,91.26 764.72,110.77 765.08,70.55 765.44,74.07 765.80,77.68 766.16,76.23 766.52,72.50 766.88,101.94 767.24,83.85 767.60,65.40 767.96,93.45 768.32,144.06 768.68,109.23 769.04,76.32 769.40,110.08 769.76,55.54 770.12,72.17 770.48,125.83 770.84,74.95 771.20,91.74 771.56,109.91 771.92,92.96 772.28,65.31 772.64,70.51 773.00,95.45 773.36,80.29 773.72,92.34 774.08,116.13 774.44,92.57 774.80,56.34 775.16,69.56 775.52,73.59 775.88,65.19 776.24,84.11 776.60,171.20 776.96,106.43 777.32,121.39 777.68,146.52 778.04,67.08 778.40,63.98 778.76,157.35 779.12,172.27 779.48,109.68 779.84,139.38 780.20,130.34 780.56,104.75 780.92,90.89 781.28,155.07 781.64,139.32 782.00,71.25 782.36,77.80 782.73,86.97 783.09,60.16 783.45,86.62 783.81,112.02 784.17,84.89 784.53,188.69 784.89,147.04 785.25,133.49 785.61,109.86 785.97,51.16 786.33,66.59 786.69,154.81 787.05,73.20 787.41,87.73 787.77,156.02 788.13,164.30 788.49,109.07 788.85,92.64 789.21,103.72 789.57,112.69 789.93,81.56 790.29,55.05 790.65,70.50 791.01,212.10 791.37,115.61 791.73,139.65 792.09,149.96 792.45,105.65 792.81,76.68 793.17,66.50 793.53,73.95 793.89,88.84 794.25,134.77 794.61,89.91 794.97,85.05 795.33,114.45 795.69,125.73 796.05,122.08 796.41,93.93 796.77,83.99 797.13,105.34 797.49,78.63 797.85,69.82 798.21,94.93 798.57,100.84 798.93,114.07 799.29,71.22 799.65,48.25 800.01,78.08 800.37,126.64 800.73,99.19 801.09,113.47 801.45,77.43 801.81,118.00 802.17,95.18 802.53,75.99 802.89,90.61 803.25,148.94 803.61,79.09 803.97,65.54 804.33,104.23 804.69,121.44 805.05,209.92 805.41,159.60 805.77,122.67 806.13,69.62 806.49,74.38 806.85,111.29 807.21,117.95 807.58,84.61 807.94,66.48 808.30,66.96 808.66,62.05 809.02,101.66 809.38,182.91 809.74,161.48 810.10,232.05 810.46,116.21 810.82,66.90 811.18,70.48 811.54,85.92 811.90,82.36 812.26,77.26 812.62,95.41 812.98,95.83 813.34,58.60 813.70,59.12 814.06,117.50 814.42,95.59 814.78,78.98 815.14,95.54 815.50,173.44 815.86,109.01 816.22,95.75 816.58,125.70 816.94,136.10 817.30,149.74 817.66,108.04 818.02,71.96 818.38,69.70 818.74,108.99 819.10,88.88 819.46,151.29 819.82,83.88 820.18,69.80 820.54,91.89 820.90,123.66 821.26,106.04 821.62,70.06 821.98,105.58 822.34,97.56 822.70,59.84 823.06,99.02 823.42,157.30 823.78,94.90 824.14,59.34 824.50,82.02 824.86,71.70 825.22,70.32 825.58,135.62 825.94,94.52 826.30,106.28 826.66,166.79 827.02,117.94 827.38,100.06 827.74,65.46 828.10,85.58 828.46,134.73 828.82,129.68 829.18,140.94 829.54,93.57 829.90,120.32 830.26,137.51 830.62,130.48 830.98,126.00 831.34,96.04 831.70,73.30 832.06,43.08 832.42,69.81 832.79,119.85 833.15,247.61 833.51,107.39 833.87,139.97 834.23,111.75 834.59,191.80 834.95,87.67 835.31,104.20 835.67,102.26 836.03,76.32 836.39,99.53 836.75,166.69 837.11,96.19 837.47,100.54 837.83,177.45 838.19,83.72 838.55,99.71 838.91,93.58 839.27,119.71 839.63,97.76 839.99,107.77 840.35,99.72 840.71,98.60 841.07,78.58 841.43,79.83 841.79,100.59 842.15,107.53 842.51,129.04 842.87,153.05 843.23,80.88 843.59,93.75 843.95,122.35 844.31,126.23 844.67,92.54 845.03,75.27 845.39,65.16 845.75,85.26 846.11,103.53 846.47,63.10 846.83,62.46 847.19,85.74 847.55,74.21 847.91,107.00 848.27,104.98 848.63,111.19 848.99,73.93 849.35,94.49 849.71,74.87 850.07,137.87 850.43,179.68 850.79,86.68 851.15,135.16 851.51,99.01 851.87,102.16 852.23,96.59 852.59,72.39 852.95,95.51 853.31,96.31 853.67,86.68 854.03,106.13 854.39,97.46 854.75,96.02 855.11,139.68 855.47,105.77 855.83,90.19 856.19,94.37 856.55,89.58 856.91,148.09 857.27,81.81 857.64,75.53 858.00,129.78 858.36,92.15 858.72,75.98 859.08,97.46 859.44,124.67 859.80,83.79 860.16,98.93 860.52,109.94 860.88,72.84 861.24,57.43 861.60,108.34 861.96,110.58 862.32,104.26 862.68,82.45 863.04,94.22 863.40,113.69 863.76,151.88 864.12,96.46 864.48,60.06 864.84,78.86 865.20,115.67 865.56,83.51 865.92,112.82 866.28,84.33 866.64,85.39 867.00,71.50 867.36,78.32 867.72,168.04 868.08,124.56 868.44,178.22 868.80,164.78 869.16,195.49 869.52,123.95 869.88,99.15 870.24,86.48 870.60,105.87 870.96,175.63 871.32,112.52 871.68,129.38 872.04,151.14 872.40,131.36 872.76,107.56 873.12,64.48 873.48,64.63 873.84,133.35 874.20,110.06 874.56,103.01 874.92,112.24 875.28,70.70 875.64,38.58 876.00,68.81 876.36,80.33 876.72,70.63 877.08,136.29 877.44,167.82 877.80,108.98 878.16,127.21 878.52,139.66 878.88,115.70 879.24,90.80 879.60,115.41 879.96,132.64 880.32,121.79 880.68,112.60 881.04,154.67 881.40,94.15 881.76,76.41 882.12,66.59 882.48,75.74 882.85,96.07 883.21,198.28 883.57,105.57 883.93,78.86 884.29,86.87 884.65,97.52 885.01,108.37 885.37,140.30 885.73,96.94 886.09,64.81 886.45,116.57 886.81,97.30 887.17,124.68 887.53,130.49 887.89,110.37 888.25,89.61 888.61,104.01 888.97,148.15 889.33,85.08 889.69,74.86 890.05,76.60 890.41,100.91 890.77,74.14 891.13,77.81 891.49,78.45 891.85,87.85 892.21,105.79 892.57,100.55 892.93,111.55 893.29,132.65 893.65,93.48 894.01,140.83 894.37,149.68 894.73,110.19 895.09,208.58 895.45,73.05 895.81,78.81 896.17,101.89 896.53,76.87 896.89,77.66 897.25,124.53 897.61,182.05 897.97,94.47 898.33,52.37 898.69,63.09 899.05,84.98 899.41,90.49 899.77,93.95 900.13,76.49 900.49,88.23 900.85,61.18 901.21,81.29 901.57,96.25 901.93,63.48 902.29,63.43 902.65,72.89 903.01,46.06 903.37,134.27 903.73,121.96 904.09,104.12 904.45,162.40 904.81,79.93 905.17,70.16 905.53,105.40 905.89,128.59 906.25,111.91 906.61,91.45 906.97,138.90 907.33,92.94 907.70,122.80 908.06,147.12 908.42,135.07 908.78,89.94 909.14,102.87 909.50,198.71 909.86,100.84 910.22,95.54 910.58,90.77 910.94,144.66 911.30,121.44 911.66,101.42 912.02,82.73 912.38,139.32 912.74,193.26 913.10,131.34 913.46,104.44 913.82,77.29 914.18,56.35 914.54,58.33 914.90,74.21 915.26,125.93 915.62,160.72 915.98,138.72 916.34,111.16 916.70,88.70 917.06,86.64 917.42,110.06 917.78,111.86 918.14,111.27 918.50,102.47 918.86,121.58 919.22,169.17 919.58,92.30 919.94,111.67 920.30,52.47 920.66,43.53 921.02,66.82 921.38,79.46 921.74,131.83 922.10,119.43 922.46,115.46 922.82,152.53 923.18,112.42 923.54,89.15 923.90,105.79 924.26,91.01 924.62,200.42 924.98,209.19 925.34,115.16 925.70,101.54 926.06,85.65 926.42,76.32 926.78,146.42 927.14,135.43 927.50,166.73 927.86,72.76 928.22,77.69 928.58,131.08 928.94,84.00 929.30,81.10 929.66,82.54 930.02,88.01 930.38,53.38 930.74,54.91 931.10,106.30 931.46,117.27 931.82,96.69 932.18,96.86 932.55,88.94 932.91,102.87 933.27,93.32 933.63,110.68 933.99,173.49 934.35,143.04 934.71,158.82 935.07,161.27 935.43,123.53 935.79,114.90 936.15,118.05 936.51,185.20 936.87,126.18 937.23,149.30 937.59,128.27 937.95,157.19 938.31,69.31 938.67,81.06 939.03,158.13 939.39,85.48 939.75,87.05 940.11,103.76 940.47,71.27 940.83,191.79 941.19,72.54 941.55,74.39 941.91,127.04 942.27,102.65 942.63,185.61 942.99,86.58 943.35,76.16 943.71,97.92 944.07,96.18 944.43,70.74 944.79,67.25 945.15,55.84 945.51,94.16 945.87,108.40 946.23,114.81 946.59,96.34 946.95,88.20 947.31,62.29 947.67,85.14 948.03,70.39 948.39,45.55 948.75,63.68 949.11,132.53 949.47,133.79 949.83,105.46 950.19,98.63 950.55,119.58 950.91,130.34 951.27,105.02 951.63,138.61 951.99,137.68 952.35,189.81 952.71,149.74 953.07,200.83 953.43,136.32 953.79,122.84 954.15,121.01 954.51,161.31 954.87,187.86 955.23,109.36 955.59,71.43 955.95,60.54 956.31,86.35 956.67,102.38 957.03,99.03 957.39,140.25 957.76,142.54 958.12,103.12 958.48,192.67 958.84,69.82 959.20,78.66 959.56,117.65 959.92,129.36 960.28,114.57 960.64,65.89 961.00,90.09 961.36,128.57 961.72,99.90 962.08,94.83 962.44,86.92 962.80,76.70 963.16,65.85 963.52,126.86 963.88,73.28 964.24,35.00 964.60,43.83 964.96,72.09 965.32,70.71 965.68,93.87 966.04,208.16 966.40,194.23 966.76,115.99 967.12,94.49 967.48,110.72 967.84,102.51 968.20,167.29 968.56,74.10 968.92,100.54 969.28,72.10 969.64,78.90 970.00,82.63" fill="none" stroke="#275d8c" stroke-width="1.5"/>
  <text x="70" y="536" font-family="Arial, sans-serif" font-size="12" fill="#1f2933">frecuencia normalizada por paso par; max=0.249950</text>
  <text x="16" y="53" font-family="Arial, sans-serif" font-size="12" fill="#1f2933" transform="rotate(-90 16,53)">log10(potencia + 1); max=7.262</text>
</svg>
