<svg xmlns="http://www.w3.org/2000/svg" width="1000" height="560" viewBox="0 0 1000 560">
  <rect width="100%" height="100%" fill="#fbfaf7"/>
  <text x="70" y="24" font-family="Arial, sans-serif" font-size="18" fill="#1f2933">Transformada de Goldbach - espectro de potencia</text>
  <line x1="70" y1="495" x2="970" y2="495" stroke="#1f2933" stroke-width="1"/>
  <line x1="70" y1="35" x2="70" y2="495" stroke="#1f2933" stroke-width="1"/>
  <polyline points="70.36,35.00 70.72,438.63 71.08,458.01 71.44,412.78 71.80,435.21 72.16,430.89 72.52,432.96 72.88,430.60 73.24,431.02 73.60,418.98 73.96,489.23 74.32,472.00 74.68,484.69 75.04,405.39 75.40,393.02 75.76,490.98 76.12,424.61 76.48,462.07 76.84,489.69 77.20,438.88 77.56,459.31 77.92,438.34 78.28,397.73 78.64,443.62 79.00,434.40 79.36,403.03 79.72,423.30 80.08,494.90 80.44,485.86 80.80,451.42 81.16,429.69 81.52,467.92 81.88,433.42 82.24,435.73 82.61,399.78 82.97,448.56 83.33,473.85 83.69,461.77 84.05,476.35 84.41,462.70 84.77,473.43 85.13,453.97 85.49,450.57 85.85,471.63 86.21,472.91 86.57,484.64 86.93,467.62 87.29,445.92 87.65,443.59 88.01,404.05 88.37,460.88 88.73,470.40 89.09,479.50 89.45,473.18 89.81,441.75 90.17,417.29 90.53,396.14 90.89,424.36 91.25,478.30 91.61,486.56 91.97,494.55 92.33,452.32 92.69,406.45 93.05,445.31 93.41,476.25 93.77,492.51 94.13,492.03 94.49,477.66 94.85,467.51 95.21,458.11 95.57,420.71 95.93,419.72 96.29,425.52 96.65,453.25 97.01,425.90 97.37,415.79 97.73,453.47 98.09,482.52 98.45,488.45 98.81,492.66 99.17,490.69 99.53,462.17 99.89,484.44 100.25,455.55 100.61,416.83 100.97,433.34 101.33,463.85 101.69,464.90 102.05,494.37 102.41,456.60 102.77,457.91 103.13,488.25 103.49,486.66 103.85,438.68 104.21,421.70 104.57,467.98 104.93,480.99 105.29,464.73 105.65,490.86 106.01,483.90 106.37,490.43 106.73,439.38 107.09,435.14 107.45,481.05 107.82,470.34 108.18,475.53 108.54,473.24 108.90,437.04 109.26,446.44 109.62,458.49 109.98,475.73 110.34,491.75 110.70,468.38 111.06,483.69 111.42,494.19 111.78,493.18 112.14,462.48 112.50,485.06 112.86,461.37 113.22,467.81 113.58,478.52 113.94,444.89 114.30,440.81 114.66,469.19 115.02,485.57 115.38,471.55 115.74,470.87 116.10,449.47 116.46,492.68 116.82,481.24 117.18,494.30 117.54,493.84 117.90,494.89 118.26,491.67 118.62,455.88 118.98,436.60 119.34,482.08 119.70,448.74 120.06,447.51 120.42,390.84 120.78,402.59 121.14,442.44 121.50,477.32 121.86,490.44 122.22,460.41 122.58,460.34 122.94,472.13 123.30,486.19 123.66,490.25 124.02,438.33 124.38,421.13 124.74,476.67 125.10,443.19 125.46,416.54 125.82,414.67 126.18,474.58 126.54,481.55 126.90,486.56 127.26,493.82 127.62,479.00 127.98,493.94 128.34,438.49 128.70,432.38 129.06,458.64 129.42,473.88 129.78,489.69 130.14,486.82 130.50,469.85 130.86,451.10 131.22,476.91 131.58,491.30 131.94,491.71 132.30,484.48 132.67,493.13 133.03,480.87 133.39,466.89 133.75,460.34 134.11,461.88 134.47,444.08 134.83,455.27 135.19,480.71 135.55,446.20 135.91,449.01 136.27,486.39 136.63,484.07 136.99,491.80 137.35,493.65 137.71,477.87 138.07,455.37 138.43,460.56 138.79,460.56 139.15,475.07 139.51,456.98 139.87,460.21 140.23,440.79 140.59,411.05 140.95,398.21 141.31,433.29 141.67,479.17 142.03,485.91 142.39,477.50 142.75,481.62 143.11,470.12 143.47,484.02 143.83,474.23 144.19,483.40 144.55,494.74 144.91,494.89 145.27,492.76 145.63,487.62 145.99,486.70 146.35,489.19 146.71,485.26 147.07,493.45 147.43,491.75 147.79,487.54 148.15,473.28 148.51,451.55 148.87,480.25 149.23,450.73 149.59,471.46 149.95,489.99 150.31,492.88 150.67,480.64 151.03,472.17 151.39,482.19 151.75,494.25 152.11,490.00 152.47,453.34 152.83,392.46 153.19,415.72 153.55,465.01 153.91,469.10 154.27,481.44 154.63,449.64 154.99,446.80 155.35,444.28 155.71,403.70 156.07,447.78 156.43,466.35 156.79,443.91 157.15,429.03 157.52,468.96 157.88,487.92 158.24,418.41 158.60,401.98 158.96,451.75 159.32,486.64 159.68,488.59 160.04,481.96 160.40,436.96 160.76,444.11 161.12,464.94 161.48,434.23 161.84,447.05 162.20,458.38 162.56,458.97 162.92,468.59 163.28,467.94 163.64,487.46 164.00,490.37 164.36,468.32 164.72,448.69 165.08,491.59 165.44,493.98 165.80,482.32 166.16,483.13 166.52,449.58 166.88,448.17 167.24,451.17 167.60,480.17 167.96,487.98 168.32,472.53 168.68,446.30 169.04,438.64 169.40,475.12 169.76,487.51 170.12,494.92 170.48,488.60 170.84,469.96 171.20,457.08 171.56,487.39 171.92,477.84 172.28,480.66 172.64,487.27 173.00,443.16 173.36,446.21 173.72,489.77 174.08,490.21 174.44,482.83 174.80,493.25 175.16,490.06 175.52,461.91 175.88,441.74 176.24,468.75 176.60,430.43 176.96,461.32 177.32,469.58 177.68,474.99 178.04,487.50 178.40,488.96 178.76,468.12 179.12,439.73 179.48,450.83 179.84,491.64 180.20,490.77 180.56,474.98 180.92,485.70 181.28,485.24 181.64,462.08 182.00,472.07 182.36,474.38 182.73,481.46 183.09,487.18 183.45,468.85 183.81,468.90 184.17,476.92 184.53,492.95 184.89,466.15 185.25,450.41 185.61,448.45 185.97,459.98 186.33,458.81 186.69,486.74 187.05,472.32 187.41,467.17 187.77,454.49 188.13,435.44 188.49,493.38 188.85,386.46 189.21,380.45 189.57,385.85 189.93,352.25 190.29,369.37 190.65,477.66 191.01,447.85 191.37,488.66 191.73,456.94 192.09,420.27 192.45,444.49 192.81,491.31 193.17,482.07 193.53,491.71 193.89,494.36 194.25,467.13 194.61,431.66 194.97,425.86 195.33,426.06 195.69,471.85 196.05,454.32 196.41,431.32 196.77,469.12 197.13,483.38 197.49,487.03 197.85,476.38 198.21,485.17 198.57,467.20 198.93,465.14 199.29,441.32 199.65,480.11 200.01,473.33 200.37,447.49 200.73,436.86 201.09,485.03 201.45,460.44 201.81,412.96 202.17,437.37 202.53,491.34 202.89,494.60 203.25,490.24 203.61,493.16 203.97,465.42 204.33,441.85 204.69,472.18 205.05,477.82 205.41,429.35 205.77,437.05 206.13,473.87 206.49,484.33 206.85,489.65 207.21,438.91 207.58,401.40 207.94,399.73 208.30,394.23 208.66,422.97 209.02,489.12 209.38,468.47 209.74,469.44 210.10,461.99 210.46,456.47 210.82,447.15 211.18,429.98 211.54,451.95 211.90,464.29 212.26,478.78 212.62,438.60 212.98,472.36 213.34,459.08 213.70,456.48 214.06,476.63 214.42,463.07 214.78,448.72 215.14,469.35 215.50,494.42 215.86,471.19 216.22,465.69 216.58,465.09 216.94,433.08 217.30,447.74 217.66,441.99 218.02,466.55 218.38,489.90 218.74,491.94 219.10,492.53 219.46,488.72 219.82,493.99 220.18,487.47 220.54,492.88 220.90,479.03 221.26,443.70 221.62,421.10 221.98,416.87 222.34,448.87 222.70,491.95 223.06,475.32 223.42,480.27 223.78,492.24 224.14,489.54 224.50,457.79 224.86,438.51 225.22,475.81 225.58,490.25 225.94,490.90 226.30,441.76 226.66,418.82 227.02,444.49 227.38,464.04 227.74,436.55 228.10,430.12 228.46,484.45 228.82,480.10 229.18,491.36 229.54,484.71 229.90,494.73 230.26,492.34 230.62,482.86 230.98,463.69 231.34,428.26 231.70,489.29 232.06,399.31 232.42,413.89 232.79,485.72 233.15,475.77 233.51,466.94 233.87,469.53 234.23,444.17 234.59,464.46 234.95,490.58 235.31,489.10 235.67,488.29 236.03,477.86 236.39,462.26 236.75,488.48 237.11,459.48 237.47,450.63 237.83,488.55 238.19,493.69 238.55,494.48 238.91,492.64 239.27,484.48 239.63,446.65 239.99,455.23 240.35,454.77 240.71,474.03 241.07,485.78 241.43,425.79 241.79,405.14 242.15,425.33 242.51,457.48 242.87,439.03 243.23,454.50 243.59,476.19 243.95,468.90 244.31,400.04 244.67,407.20 245.03,441.19 245.39,373.19 245.75,399.48 246.11,434.35 246.47,426.89 246.83,461.55 247.19,472.76 247.55,488.72 247.91,463.75 248.27,440.23 248.63,443.23 248.99,491.07 249.35,474.98 249.71,469.47 250.07,466.75 250.43,467.15 250.79,483.66 251.15,483.96 251.51,475.08 251.87,479.35 252.23,474.99 252.59,473.52 252.95,479.89 253.31,477.00 253.67,492.22 254.03,485.60 254.39,471.72 254.75,438.74 255.11,482.00 255.47,490.67 255.83,462.06 256.19,427.47 256.55,454.98 256.91,466.64 257.27,453.40 257.64,493.35 258.00,459.90 258.36,473.58 258.72,432.59 259.08,439.89 259.44,465.26 259.80,463.08 260.16,487.33 260.52,456.66 260.88,460.59 261.24,463.30 261.60,488.08 261.96,491.79 262.32,484.21 262.68,481.36 263.04,485.91 263.40,490.62 263.76,465.49 264.12,489.32 264.48,471.29 264.84,466.42 265.20,484.51 265.56,493.95 265.92,494.53 266.28,443.41 266.64,427.95 267.00,449.68 267.36,449.57 267.72,474.75 268.08,493.80 268.44,481.85 268.80,486.00 269.16,491.57 269.52,494.00 269.88,494.58 270.24,494.74 270.60,494.88 270.96,493.18 271.32,487.73 271.68,475.44 272.04,456.01 272.40,471.06 272.76,484.54 273.12,477.40 273.48,473.78 273.84,442.07 274.20,443.63 274.56,477.21 274.92,457.96 275.28,472.87 275.64,456.14 276.00,459.00 276.36,491.42 276.72,454.91 277.08,494.16 277.44,438.09 277.80,470.54 278.16,489.39 278.52,494.97 278.88,488.02 279.24,440.41 279.60,461.77 279.96,485.01 280.32,452.03 280.68,472.08 281.04,462.05 281.40,437.69 281.76,398.87 282.12,421.68 282.48,485.10 282.85,479.89 283.21,477.07 283.57,492.24 283.93,494.19 284.29,494.18 284.65,475.08 285.01,445.04 285.37,459.26 285.73,485.15 286.09,482.65 286.45,461.19 286.81,460.27 287.17,482.88 287.53,462.04 287.89,445.91 288.25,430.96 288.61,486.30 288.97,478.10 289.33,475.24 289.69,437.23 290.05,459.77 290.41,493.73 290.77,494.99 291.13,480.21 291.49,480.38 291.85,487.83 292.21,488.54 292.57,477.99 292.93,452.82 293.29,445.16 293.65,461.64 294.01,453.22 294.37,493.02 294.73,485.57 295.09,490.09 295.45,492.34 295.81,472.43 296.17,477.79 296.53,473.72 296.89,472.33 297.25,454.62 297.61,429.59 297.97,462.78 298.33,491.85 298.69,469.90 299.05,461.39 299.41,486.25 299.77,480.97 300.13,488.61 300.49,443.47 300.85,426.60 301.21,462.90 301.57,485.65 301.93,479.44 302.29,474.80 302.65,490.35 303.01,474.11 303.37,451.40 303.73,431.21 304.09,471.55 304.45,481.41 304.81,455.58 305.17,454.98 305.53,475.57 305.89,437.61 306.25,442.71 306.61,482.84 306.97,456.92 307.33,467.60 307.70,492.40 308.06,481.95 308.42,475.61 308.78,481.97 309.14,467.82 309.50,484.80 309.86,408.49 310.22,376.18 310.58,392.98 310.94,478.98 311.30,460.55 311.66,489.52 312.02,472.77 312.38,421.88 312.74,437.56 313.10,485.27 313.46,484.34 313.82,483.22 314.18,477.40 314.54,463.40 314.90,470.09 315.26,493.85 315.62,478.03 315.98,433.93 316.34,414.96 316.70,453.20 317.06,459.02 317.42,464.52 317.78,460.89 318.14,449.14 318.50,471.29 318.86,474.32 319.22,471.03 319.58,453.28 319.94,494.78 320.30,477.80 320.66,457.43 321.02,417.23 321.38,425.93 321.74,454.61 322.10,467.54 322.46,486.88 322.82,467.73 323.18,484.87 323.54,484.88 323.90,466.02 324.26,481.03 324.62,483.31 324.98,459.58 325.34,424.15 325.70,421.91 326.06,445.19 326.42,430.90 326.78,446.35 327.14,363.44 327.50,390.24 327.86,479.98 328.22,462.49 328.58,425.71 328.94,479.57 329.30,444.51 329.66,425.70 330.02,467.81 330.38,462.70 330.74,483.90 331.10,478.99 331.46,490.57 331.82,450.92 332.18,451.14 332.55,464.17 332.91,442.95 333.27,415.88 333.63,454.27 333.99,493.69 334.35,488.92 334.71,471.12 335.07,474.56 335.43,457.96 335.79,419.93 336.15,463.68 336.51,481.49 336.87,468.48 337.23,480.10 337.59,481.42 337.95,417.83 338.31,428.28 338.67,397.97 339.03,434.17 339.39,474.45 339.75,473.00 340.11,491.14 340.47,487.48 340.83,443.51 341.19,437.99 341.55,449.89 341.91,450.64 342.27,424.21 342.63,376.78 342.99,398.85 343.35,459.29 343.71,452.94 344.07,473.18 344.43,482.81 344.79,488.76 345.15,485.71 345.51,488.43 345.87,490.80 346.23,488.56 346.59,456.19 346.95,414.50 347.31,412.76 347.67,469.52 348.03,457.97 348.39,465.53 348.75,478.19 349.11,491.40 349.47,483.75 349.83,493.55 350.19,476.55 350.55,473.31 350.91,479.42 351.27,474.75 351.63,476.78 351.99,483.94 352.35,471.20 352.71,467.97 353.07,465.84 353.43,486.28 353.79,457.65 354.15,458.27 354.51,456.76 354.87,436.89 355.23,488.90 355.59,467.94 355.95,493.31 356.31,482.12 356.67,426.75 357.03,418.28 357.39,472.12 357.76,492.12 358.12,487.71 358.48,484.22 358.84,489.80 359.20,487.69 359.56,462.58 359.92,492.22 360.28,464.37 360.64,492.27 361.00,487.83 361.36,458.22 361.72,393.53 362.08,407.04 362.44,481.12 362.80,457.43 363.16,441.77 363.52,459.64 363.88,477.74 364.24,482.64 364.60,455.05 364.96,488.42 365.32,459.90 365.68,470.16 366.04,490.59 366.40,491.38 366.76,491.03 367.12,489.90 367.48,481.48 367.84,478.98 368.20,482.22 368.56,491.07 368.92,487.63 369.28,470.60 369.64,455.11 370.00,437.45 370.36,457.38 370.72,485.26 371.08,483.81 371.44,493.12 371.80,459.87 372.16,445.00 372.52,463.88 372.88,487.14 373.24,493.84 373.60,466.23 373.96,421.04 374.32,435.39 374.68,478.65 375.04,472.10 375.40,430.53 375.76,416.08 376.12,469.84 376.48,494.20 376.84,479.68 377.20,488.64 377.56,484.44 377.92,485.37 378.28,478.75 378.64,444.63 379.00,477.32 379.36,489.64 379.72,467.91 380.08,481.01 380.44,412.30 380.80,434.66 381.16,490.32 381.52,491.14 381.88,477.76 382.24,461.54 382.61,432.08 382.97,448.07 383.33,467.41 383.69,456.88 384.05,486.13 384.41,487.85 384.77,479.38 385.13,476.07 385.49,458.28 385.85,451.15 386.21,454.44 386.57,462.24 386.93,477.61 387.29,484.17 387.65,407.97 388.01,411.80 388.37,455.67 388.73,477.93 389.09,476.52 389.45,493.92 389.81,488.95 390.17,488.42 390.53,449.19 390.89,429.70 391.25,470.70 391.61,467.85 391.97,457.46 392.33,489.31 392.69,478.61 393.05,438.28 393.41,401.94 393.77,414.39 394.13,478.21 394.49,489.99 394.85,492.28 395.21,489.58 395.57,481.34 395.93,474.40 396.29,428.30 396.65,427.09 397.01,491.29 397.37,434.53 397.73,434.48 398.09,448.96 398.45,486.29 398.81,451.53 399.17,433.76 399.53,474.87 399.89,484.09 400.25,478.84 400.61,473.80 400.97,482.42 401.33,481.92 401.69,463.65 402.05,458.03 402.41,484.33 402.77,481.30 403.13,466.53 403.49,468.33 403.85,464.14 404.21,472.82 404.57,478.89 404.93,486.30 405.29,474.38 405.65,470.21 406.01,478.22 406.37,447.51 406.73,428.93 407.09,457.19 407.45,472.40 407.82,449.00 408.18,463.55 408.54,482.77 408.90,470.68 409.26,458.01 409.62,490.10 409.98,457.78 410.34,416.92 410.70,454.92 411.06,491.57 411.42,490.24 411.78,475.93 412.14,484.59 412.50,410.02 412.86,394.72 413.22,450.23 413.58,454.92 413.94,470.55 414.30,472.57 414.66,403.35 415.02,412.31 415.38,481.66 415.74,470.17 416.10,466.36 416.46,493.93 416.82,468.90 417.18,428.23 417.54,434.90 417.90,468.06 418.26,447.69 418.62,436.77 418.98,433.68 419.34,435.61 419.70,489.51 420.06,481.08 420.42,490.83 420.78,450.58 421.14,453.00 421.50,480.53 421.86,436.74 422.22,441.71 422.58,457.90 422.94,473.59 423.30,465.08 423.66,447.86 424.02,460.04 424.38,483.88 424.74,485.28 425.10,490.05 425.46,486.86 425.82,474.13 426.18,487.43 426.54,461.94 426.90,471.92 427.26,459.16 427.62,452.06 427.98,480.74 428.34,463.16 428.70,425.87 429.06,424.57 429.42,421.16 429.78,366.70 430.14,323.35 430.50,372.11 430.86,401.91 431.22,423.98 431.58,445.02 431.94,430.73 432.30,472.32 432.67,471.64 433.03,468.57 433.39,456.45 433.75,474.93 434.11,463.31 434.47,471.20 434.83,465.92 435.19,437.48 435.55,447.32 435.91,472.78 436.27,474.86 436.63,443.67 436.99,480.81 437.35,483.95 437.71,470.57 438.07,481.73 438.43,492.96 438.79,484.40 439.15,447.22 439.51,423.15 439.87,417.63 440.23,407.21 440.59,470.38 440.95,485.55 441.31,479.46 441.67,485.87 442.03,470.01 442.39,452.77 442.75,466.73 443.11,440.56 443.47,443.27 443.83,489.56 444.19,471.02 444.55,484.15 444.91,471.00 445.27,484.51 445.63,483.76 445.99,447.82 446.35,474.78 446.71,434.67 447.07,411.13 447.43,450.50 447.79,476.76 448.15,465.00 448.51,439.72 448.87,405.24 449.23,428.07 449.59,477.40 449.95,484.38 450.31,438.86 450.67,446.49 451.03,460.93 451.39,463.36 451.75,407.57 452.11,417.81 452.47,458.95 452.83,462.12 453.19,434.90 453.55,439.47 453.91,491.50 454.27,479.13 454.63,449.71 454.99,452.02 455.35,492.41 455.71,477.68 456.07,481.46 456.43,477.09 456.79,490.79 457.15,475.09 457.52,486.63 457.88,456.27 458.24,444.21 458.60,474.67 458.96,490.03 459.32,487.82 459.68,491.31 460.04,472.91 460.40,458.60 460.76,461.38 461.12,458.28 461.48,451.51 461.84,483.34 462.20,472.11 462.56,471.82 462.92,491.83 463.28,493.11 463.64,493.95 464.00,480.52 464.36,448.85 464.72,456.65 465.08,453.62 465.44,459.99 465.80,483.22 466.16,494.53 466.52,474.60 466.88,493.90 467.24,474.88 467.60,450.96 467.96,433.60 468.32,444.31 468.68,476.85 469.04,491.72 469.40,493.66 469.76,492.41 470.12,489.25 470.48,475.56 470.84,461.93 471.20,478.71 471.56,485.61 471.92,488.33 472.28,492.78 472.64,474.27 473.00,494.03 473.36,468.69 473.72,478.12 474.08,487.91 474.44,494.04 474.80,493.32 475.16,469.73 475.52,428.05 475.88,458.64 476.24,463.30 476.60,442.94 476.96,444.86 477.32,466.84 477.68,454.50 478.04,488.21 478.40,491.79 478.76,452.09 479.12,467.44 479.48,474.38 479.84,478.94 480.20,467.72 480.56,395.75 480.92,385.20 481.28,465.27 481.64,428.44 482.00,464.41 482.36,465.19 482.73,477.45 483.09,475.43 483.45,479.97 483.81,479.59 484.17,488.19 484.53,476.03 484.89,485.19 485.25,436.94 485.61,422.57 485.97,461.70 486.33,470.93 486.69,491.00 487.05,490.55 487.41,467.18 487.77,462.18 488.13,482.37 488.49,452.43 488.85,430.24 489.21,442.37 489.57,436.20 489.93,459.07 490.29,493.45 490.65,489.24 491.01,490.55 491.37,462.71 491.73,412.67 492.09,435.89 492.45,465.64 492.81,451.01 493.17,409.55 493.53,383.78 493.89,415.00 494.25,450.30 494.61,434.96 494.97,484.75 495.33,462.24 495.69,463.90 496.05,493.90 496.41,486.65 496.77,448.82 497.13,427.10 497.49,457.39 497.85,463.03 498.21,407.67 498.57,384.64 498.93,443.69 499.29,472.23 499.65,482.28 500.01,466.75 500.37,481.01 500.73,457.13 501.09,492.32 501.45,494.03 501.81,494.27 502.17,488.37 502.53,491.07 502.89,470.10 503.25,493.86 503.61,463.76 503.97,449.49 504.33,441.74 504.69,445.22 505.05,485.91 505.41,473.44 505.77,430.31 506.13,464.72 506.49,442.74 506.85,448.37 507.21,478.84 507.58,487.97 507.94,479.90 508.30,444.91 508.66,448.70 509.02,477.73 509.38,487.88 509.74,491.48 510.10,489.40 510.46,490.38 510.82,482.51 511.18,472.88 511.54,494.79 511.90,444.37 512.26,447.17 512.62,475.08 512.98,456.18 513.34,413.08 513.70,405.76 514.06,466.52 514.42,470.70 514.78,470.09 515.14,432.74 515.50,431.52 515.86,462.46 516.22,443.42 516.58,470.39 516.94,431.80 517.30,438.54 517.66,456.89 518.02,445.06 518.38,456.97 518.74,469.40 519.10,472.90 519.46,491.90 519.82,494.20 520.18,493.16 520.54,483.81 520.90,485.47 521.26,493.74 521.62,479.84 521.98,438.01 522.34,448.79 522.70,478.16 523.06,463.55 523.42,473.26 523.78,491.60 524.14,484.01 524.50,481.98 524.86,490.83 525.22,458.87 525.58,465.53 525.94,482.05 526.30,494.42 526.66,487.98 527.02,487.13 527.38,474.18 527.74,471.95 528.10,480.45 528.46,439.14 528.82,407.26 529.18,408.50 529.54,429.46 529.90,453.81 530.26,493.49 530.62,494.05 530.98,492.48 531.34,477.91 531.70,493.17 532.06,416.25 532.42,380.62 532.79,417.83 533.15,441.41 533.51,428.39 533.87,464.11 534.23,466.90 534.59,459.37 534.95,490.78 535.31,460.05 535.67,430.27 536.03,448.66 536.39,489.16 536.75,489.41 537.11,493.55 537.47,476.71 537.83,486.28 538.19,444.19 538.55,455.33 538.91,489.34 539.27,480.28 539.63,458.99 539.99,436.13 540.35,462.95 540.71,470.23 541.07,454.38 541.43,494.87 541.79,483.93 542.15,487.53 542.51,489.68 542.87,491.81 543.23,483.26 543.59,424.43 543.95,427.51 544.31,491.05 544.67,471.94 545.03,454.31 545.39,427.57 545.75,432.43 546.11,486.24 546.47,485.76 546.83,480.69 547.19,461.33 547.55,455.51 547.91,419.31 548.27,409.70 548.63,469.95 548.99,428.85 549.35,434.48 549.71,404.84 550.07,358.92 550.43,386.05 550.79,421.78 551.15,420.94 551.51,484.43 551.87,401.90 552.23,424.17 552.59,463.13 552.95,435.95 553.31,454.58 553.67,487.48 554.03,488.74 554.39,473.82 554.75,485.46 555.11,479.54 555.47,487.15 555.83,489.73 556.19,449.51 556.55,424.64 556.91,432.49 557.27,450.80 557.64,474.89 558.00,463.53 558.36,423.01 558.72,428.08 559.08,492.18 559.44,485.80 559.80,494.70 560.16,492.09 560.52,441.37 560.88,410.60 561.24,423.34 561.60,478.10 561.96,439.68 562.32,454.09 562.68,478.22 563.04,466.36 563.40,458.24 563.76,481.78 564.12,440.85 564.48,412.30 564.84,443.81 565.20,482.18 565.56,472.94 565.92,464.22 566.28,445.40 566.64,409.68 567.00,422.35 567.36,458.39 567.72,494.26 568.08,475.49 568.44,494.80 568.80,490.64 569.16,451.55 569.52,466.99 569.88,479.17 570.24,494.68 570.60,483.39 570.96,451.11 571.32,450.70 571.68,450.72 572.04,443.22 572.40,461.73 572.76,464.37 573.12,454.32 573.48,454.54 573.84,478.90 574.20,480.36 574.56,487.00 574.92,473.57 575.28,494.89 575.64,486.65 576.00,494.40 576.36,490.70 576.72,473.57 577.08,460.50 577.44,446.96 577.80,422.00 578.16,436.57 578.52,487.57 578.88,450.71 579.24,456.19 579.60,459.41 579.96,449.83 580.32,457.32 580.68,480.73 581.04,487.29 581.40,448.36 581.76,439.82 582.12,487.27 582.48,479.23 582.85,409.33 583.21,403.27 583.57,455.98 583.93,494.68 584.29,410.05 584.65,404.71 585.01,462.72 585.37,437.43 585.73,478.27 586.09,481.32 586.45,466.62 586.81,483.85 587.17,452.39 587.53,480.47 587.89,472.97 588.25,473.74 588.61,479.18 588.97,442.59 589.33,474.85 589.69,492.78 590.05,492.93 590.41,456.66 590.77,423.20 591.13,442.95 591.49,465.29 591.85,460.50 592.21,477.72 592.57,456.95 592.93,493.78 593.29,451.00 593.65,427.61 594.01,425.04 594.37,458.32 594.73,493.29 595.09,488.31 595.45,475.80 595.81,483.05 596.17,486.37 596.53,492.96 596.89,460.66 597.25,474.95 597.61,450.25 597.97,426.49 598.33,443.00 598.69,427.39 599.05,449.84 599.41,460.22 599.77,450.30 600.13,476.00 600.49,449.00 600.85,460.71 601.21,473.65 601.57,474.93 601.93,493.11 602.29,494.24 602.65,489.70 603.01,487.20 603.37,492.00 603.73,478.33 604.09,492.74 604.45,475.40 604.81,467.82 605.17,441.71 605.53,439.91 605.89,474.48 606.25,477.02 606.61,486.60 606.97,446.62 607.33,437.57 607.70,447.58 608.06,441.54 608.42,492.98 608.78,493.44 609.14,481.42 609.50,473.07 609.86,493.27 610.22,491.63 610.58,492.30 610.94,485.45 611.30,479.45 611.66,417.84 612.02,401.08 612.38,418.16 612.74,459.96 613.10,490.39 613.46,467.54 613.82,417.98 614.18,383.03 614.54,415.12 614.90,488.47 615.26,494.56 615.62,434.26 615.98,437.52 616.34,474.69 616.70,471.85 617.06,464.79 617.42,475.81 617.78,492.86 618.14,427.03 618.50,399.36 618.86,409.38 619.22,472.48 619.58,479.93 619.94,483.92 620.30,475.87 620.66,491.17 621.02,482.61 621.38,477.23 621.74,476.55 622.10,492.95 622.46,487.04 622.82,492.71 623.18,475.22 623.54,461.20 623.90,445.61 624.26,441.49 624.62,426.57 624.98,416.66 625.34,457.11 625.70,492.22 626.06,481.24 626.42,469.70 626.78,458.74 627.14,494.98 627.50,473.88 627.86,463.11 628.22,451.10 628.58,457.37 628.94,482.57 629.30,441.92 629.66,448.67 630.02,439.50 630.38,472.35 630.74,494.84 631.10,490.10 631.46,493.63 631.82,486.19 632.18,491.46 632.55,488.41 632.91,443.10 633.27,431.58 633.63,478.10 633.99,463.67 634.35,465.66 634.71,468.42 635.07,432.20 635.43,478.29 635.79,471.51 636.15,470.06 636.51,459.19 636.87,473.62 637.23,476.79 637.59,468.32 637.95,470.80 638.31,424.61 638.67,397.05 639.03,449.30 639.39,465.20 639.75,485.51 640.11,490.59 640.47,462.55 640.83,453.44 641.19,485.29 641.55,475.24 641.91,429.89 642.27,460.19 642.63,492.19 642.99,493.17 643.35,472.36 643.71,431.76 644.07,448.89 644.43,456.66 644.79,440.02 645.15,465.62 645.51,489.13 645.87,493.85 646.23,493.58 646.59,479.77 646.95,463.36 647.31,452.11 647.67,481.98 648.03,491.05 648.39,491.73 648.75,484.24 649.11,459.29 649.47,419.34 649.83,418.12 650.19,429.75 650.55,438.80 650.91,470.89 651.27,493.78 651.63,486.83 651.99,465.33 652.35,446.46 652.71,440.20 653.07,455.18 653.43,484.44 653.79,482.15 654.15,452.39 654.51,444.58 654.87,478.80 655.23,467.24 655.59,458.86 655.95,473.51 656.31,461.17 656.67,485.40 657.03,474.60 657.39,475.21 657.76,442.64 658.12,441.10 658.48,419.47 658.84,446.14 659.20,454.11 659.56,460.76 659.92,494.02 660.28,491.49 660.64,463.33 661.00,460.32 661.36,493.60 661.72,490.36 662.08,460.83 662.44,382.26 662.80,364.53 663.16,412.17 663.52,469.65 663.88,462.96 664.24,485.46 664.60,461.76 664.96,459.06 665.32,456.88 665.68,436.66 666.04,474.26 666.40,431.85 666.76,453.06 667.12,453.44 667.48,412.93 667.84,400.80 668.20,446.17 668.56,393.87 668.92,404.47 669.28,416.63 669.64,357.15 670.00,263.14 670.36,282.50 670.72,483.38 671.08,431.20 671.44,400.03 671.80,414.78 672.16,409.09 672.52,407.96 672.88,438.08 673.24,461.70 673.60,440.52 673.96,434.45 674.32,454.88 674.68,418.29 675.04,460.83 675.40,471.99 675.76,485.92 676.12,486.01 676.48,450.15 676.84,493.56 677.20,443.54 677.56,459.61 677.92,416.21 678.28,478.88 678.64,486.53 679.00,493.56 679.36,477.56 679.72,493.79 680.08,463.62 680.44,445.11 680.80,490.96 681.16,484.66 681.52,475.84 681.88,470.54 682.24,462.35 682.61,448.47 682.97,461.91 683.33,480.97 683.69,484.05 684.05,430.34 684.41,450.79 684.77,478.90 685.13,463.23 685.49,476.09 685.85,480.42 686.21,488.52 686.57,488.01 686.93,485.22 687.29,444.71 687.65,422.16 688.01,428.25 688.37,465.46 688.73,445.50 689.09,483.23 689.45,463.22 689.81,434.77 690.17,489.37 690.53,429.41 690.89,472.59 691.25,488.94 691.61,489.52 691.97,490.56 692.33,473.34 692.69,492.93 693.05,472.81 693.41,468.92 693.77,482.15 694.13,486.03 694.49,471.42 694.85,468.47 695.21,470.42 695.57,462.53 695.93,427.69 696.29,457.99 696.65,488.98 697.01,470.37 697.37,494.28 697.73,470.05 698.09,479.74 698.45,490.73 698.81,481.06 699.17,488.40 699.53,491.23 699.89,487.79 700.25,492.79 700.61,478.20 700.97,466.83 701.33,469.95 701.69,459.42 702.05,466.27 702.41,429.63 702.77,426.23 703.13,478.20 703.49,475.84 703.85,480.53 704.21,448.23 704.57,446.87 704.93,458.83 705.29,447.79 705.65,419.18 706.01,455.45 706.37,491.84 706.73,474.66 707.09,447.69 707.45,455.92 707.82,474.82 708.18,463.92 708.54,441.24 708.90,445.03 709.26,479.76 709.62,493.06 709.98,483.09 710.34,487.25 710.70,468.71 711.06,457.80 711.42,487.95 711.78,463.30 712.14,478.75 712.50,487.32 712.86,471.14 713.22,473.73 713.58,465.72 713.94,472.93 714.30,488.74 714.66,470.02 715.02,468.13 715.38,482.98 715.74,493.28 716.10,466.64 716.46,465.62 716.82,450.47 717.18,434.04 717.54,428.22 717.90,478.44 718.26,494.99 718.62,489.76 718.98,495.00 719.34,483.58 719.70,471.20 720.06,466.92 720.42,490.28 720.78,489.17 721.14,424.24 721.50,410.74 721.86,475.27 722.22,466.74 722.58,485.73 722.94,487.63 723.30,452.88 723.66,444.68 724.02,441.91 724.38,390.05 724.74,372.67 725.10,392.77 725.46,461.25 725.82,450.46 726.18,458.77 726.54,483.62 726.90,465.99 727.26,448.87 727.62,450.53 727.98,465.23 728.34,464.92 728.70,482.13 729.06,490.68 729.42,476.39 729.78,456.81 730.14,487.57 730.50,477.16 730.86,471.45 731.22,493.54 731.58,493.29 731.94,447.52 732.30,435.12 732.67,491.56 733.03,460.32 733.39,473.94 733.75,480.93 734.11,492.02 734.47,492.54 734.83,471.91 735.19,492.23 735.55,462.43 735.91,458.02 736.27,491.17 736.63,479.07 736.99,491.85 737.35,470.20 737.71,441.56 738.07,481.03 738.43,485.74 738.79,473.76 739.15,487.17 739.51,482.29 739.87,481.74 740.23,490.37 740.59,450.98 740.95,439.19 741.31,441.95 741.67,434.06 742.03,479.70 742.39,491.94 742.75,489.98 743.11,476.83 743.47,451.33 743.83,428.57 744.19,435.06 744.55,481.85 744.91,488.51 745.27,492.62 745.63,493.26 745.99,484.57 746.35,486.73 746.71,473.39 747.07,487.63 747.43,493.34 747.79,492.60 748.15,470.59 748.51,472.24 748.87,486.62 749.23,488.33 749.59,492.00 749.95,484.14 750.31,489.67 750.67,486.97 751.03,434.95 751.39,444.32 751.75,480.92 752.11,489.44 752.47,477.49 752.83,480.88 753.19,492.96 753.55,480.47 753.91,448.09 754.27,491.15 754.63,473.55 754.99,473.76 755.35,469.56 755.71,402.00 756.07,426.95 756.43,432.66 756.79,417.35 757.15,440.09 757.52,484.93 757.88,488.07 758.24,475.95 758.60,445.71 758.96,471.14 759.32,477.41 759.68,463.34 760.04,476.15 760.40,466.16 760.76,451.47 761.12,477.55 761.48,494.52 761.84,473.84 762.20,467.08 762.56,447.76 762.92,462.74 763.28,488.33 763.64,486.82 764.00,478.15 764.36,489.14 764.72,489.83 765.08,471.29 765.44,462.64 765.80,441.56 766.16,444.58 766.52,431.11 766.88,422.94 767.24,469.89 767.60,494.25 767.96,467.05 768.32,445.16 768.68,455.41 769.04,429.32 769.40,442.60 769.76,489.15 770.12,494.70 770.48,482.14 770.84,467.97 771.20,473.77 771.56,494.94 771.92,482.81 772.28,449.11 772.64,421.64 773.00,426.80 773.36,454.91 773.72,481.67 774.08,487.12 774.44,478.82 774.80,477.06 775.16,491.41 775.52,481.40 775.88,441.99 776.24,475.10 776.60,472.00 776.96,454.22 777.32,466.35 777.68,463.25 778.04,485.66 778.40,482.31 778.76,486.33 779.12,438.76 779.48,461.41 779.84,488.69 780.20,494.21 780.56,491.44 780.92,488.70 781.28,482.95 781.64,466.11 782.00,458.55 782.36,483.11 782.73,485.90 783.09,484.84 783.45,489.51 783.81,493.30 784.17,493.27 784.53,472.24 784.89,478.09 785.25,471.38 785.61,446.64 785.97,420.66 786.33,450.99 786.69,467.98 787.05,440.90 787.41,469.89 787.77,473.47 788.13,452.59 788.49,462.13 788.85,440.04 789.21,470.96 789.57,483.12 789.93,374.27 790.29,350.66 790.65,408.14 791.01,421.56 791.37,412.22 791.73,493.63 792.09,413.45 792.45,436.18 792.81,488.71 793.17,493.65 793.53,494.75 793.89,487.13 794.25,454.25 794.61,442.90 794.97,447.74 795.33,441.24 795.69,455.98 796.05,460.92 796.41,411.16 796.77,393.70 797.13,409.02 797.49,449.29 797.85,481.07 798.21,483.06 798.57,480.67 798.93,467.83 799.29,450.90 799.65,456.57 800.01,436.62 800.37,462.17 800.73,447.86 801.09,456.87 801.45,488.30 801.81,456.09 802.17,427.31 802.53,473.26 802.89,479.10 803.25,492.19 803.61,494.16 803.97,475.25 804.33,459.48 804.69,486.34 805.05,484.02 805.41,446.38 805.77,420.30 806.13,423.51 806.49,494.19 806.85,473.79 807.21,484.20 807.58,453.53 807.94,433.81 808.30,472.55 808.66,493.88 809.02,482.70 809.38,487.48 809.74,482.98 810.10,476.76 810.46,468.82 810.82,460.58 811.18,473.12 811.54,486.60 811.90,439.81 812.26,463.67 812.62,451.79 812.98,487.67 813.34,478.21 813.70,468.90 814.06,488.71 814.42,494.60 814.78,476.46 815.14,471.69 815.50,446.58 815.86,451.05 816.22,455.71 816.58,484.95 816.94,456.23 817.30,470.25 817.66,468.42 818.02,462.59 818.38,482.25 818.74,489.86 819.10,469.57 819.46,462.34 819.82,485.75 820.18,492.34 820.54,484.25 820.90,484.58 821.26,455.94 821.62,463.81 821.98,426.07 822.34,439.08 822.70,484.69 823.06,453.80 823.42,445.61 823.78,472.92 824.14,493.56 824.50,426.34 824.86,377.31 825.22,403.77 825.58,476.38 825.94,492.00 826.30,442.60 826.66,409.84 827.02,430.03 827.38,431.34 827.74,419.91 828.10,378.03 828.46,408.65 828.82,478.90 829.18,493.59 829.54,492.14 829.90,494.99 830.26,487.41 830.62,456.41 830.98,469.29 831.34,481.44 831.70,446.25 832.06,451.85 832.42,425.79 832.79,466.75 833.15,480.22 833.51,437.84 833.87,460.34 834.23,442.20 834.59,434.10 834.95,464.86 835.31,486.84 835.67,484.31 836.03,476.65 836.39,460.56 836.75,488.28 837.11,488.21 837.47,486.92 837.83,456.09 838.19,459.12 838.55,486.56 838.91,485.17 839.27,492.82 839.63,453.97 839.99,436.99 840.35,474.07 840.71,438.57 841.07,418.84 841.43,365.16 841.79,369.64 842.15,411.39 842.51,452.97 842.87,466.86 843.23,454.76 843.59,487.73 843.95,492.40 844.31,457.71 844.67,436.00 845.03,475.51 845.39,467.13 845.75,455.05 846.11,481.26 846.47,447.57 846.83,437.02 847.19,488.37 847.55,437.30 847.91,435.99 848.27,460.68 848.63,460.58 848.99,465.39 849.35,493.45 849.71,476.26 850.07,474.14 850.43,458.84 850.79,472.59 851.15,488.46 851.51,466.53 851.87,478.79 852.23,465.43 852.59,426.99 852.95,434.70 853.31,474.51 853.67,470.06 854.03,488.00 854.39,476.91 854.75,419.74 855.11,438.41 855.47,473.92 855.83,475.40 856.19,470.06 856.55,471.65 856.91,482.09 857.27,481.64 857.64,486.01 858.00,463.20 858.36,452.12 858.72,481.70 859.08,463.86 859.44,438.08 859.80,453.50 860.16,482.29 860.52,486.47 860.88,478.11 861.24,462.05 861.60,464.53 861.96,490.00 862.32,494.95 862.68,491.22 863.04,493.18 863.40,488.60 863.76,433.75 864.12,432.04 864.48,477.66 864.84,476.92 865.20,492.71 865.56,486.60 865.92,492.92 866.28,493.00 866.64,479.05 867.00,442.36 867.36,427.92 867.72,425.76 868.08,427.58 868.44,441.33 868.80,487.96 869.16,483.08 869.52,490.89 869.88,494.58 870.24,494.64 870.60,494.91 870.96,493.88 871.32,489.98 871.68,479.68 872.04,474.62 872.40,479.65 872.76,481.58 873.12,469.54 873.48,491.67 873.84,481.53 874.20,481.41 874.56,490.14 874.92,493.67 875.28,485.34 875.64,443.43 876.00,442.11 876.36,476.51 876.72,493.40 877.08,433.71 877.44,418.68 877.80,460.83 878.16,485.60 878.52,461.33 878.88,461.05 879.24,453.31 879.60,457.33 879.96,480.86 880.32,483.89 880.68,490.87 881.04,467.53 881.40,479.00 881.76,475.55 882.12,458.94 882.48,463.96 882.85,456.21 883.21,442.97 883.57,491.04 883.93,470.04 884.29,490.06 884.65,462.21 885.01,401.80 885.37,398.10 885.73,456.41 886.09,486.03 886.45,411.26 886.81,401.80 887.17,476.74 887.53,436.27 887.89,426.08 888.25,477.04 888.61,419.77 888.97,454.45 889.33,462.02 889.69,435.94 890.05,446.80 890.41,489.62 890.77,488.33 891.13,491.58 891.49,488.38 891.85,494.80 892.21,490.37 892.57,493.31 892.93,469.50 893.29,445.05 893.65,463.75 894.01,471.63 894.37,467.13 894.73,459.83 895.09,493.26 895.45,438.13 895.81,436.04 896.17,429.11 896.53,422.10 896.89,470.75 897.25,435.33 897.61,419.32 897.97,438.97 898.33,469.01 898.69,455.67 899.05,448.07 899.41,488.95 899.77,486.55 900.13,474.21 900.49,437.97 900.85,402.65 901.21,433.35 901.57,474.31 901.93,490.55 902.29,453.07 902.65,450.84 903.01,474.43 903.37,456.75 903.73,438.00 904.09,472.91 904.45,450.64 904.81,433.95 905.17,482.30 905.53,451.85 905.89,453.05 906.25,472.18 906.61,487.55 906.97,448.19 907.33,455.91 907.70,490.21 908.06,487.24 908.42,469.73 908.78,477.15 909.14,476.59 909.50,482.78 909.86,403.97 910.22,365.41 910.58,382.73 910.94,430.87 911.30,446.02 911.66,481.53 912.02,457.56 912.38,462.18 912.74,428.06 913.10,451.57 913.46,493.47 913.82,481.13 914.18,457.55 914.54,474.62 914.90,491.47 915.26,493.08 915.62,492.20 915.98,486.56 916.34,456.10 916.70,416.83 917.06,411.83 917.42,434.29 917.78,478.14 918.14,415.04 918.50,403.83 918.86,446.11 919.22,492.27 919.58,488.90 919.94,487.36 920.30,477.23 920.66,466.88 921.02,421.62 921.38,428.38 921.74,441.94 922.10,482.93 922.46,413.03 922.82,389.35 923.18,436.84 923.54,483.38 923.90,467.61 924.26,446.05 924.62,454.20 924.98,458.13 925.34,422.88 925.70,410.22 926.06,447.05 926.42,490.83 926.78,473.94 927.14,440.72 927.50,389.91 927.86,427.42 928.22,450.42 928.58,417.65 928.94,457.81 929.30,481.67 929.66,457.89 930.02,483.24 930.38,471.50 930.74,493.24 931.10,491.65 931.46,487.45 931.82,441.04 932.18,419.56 932.55,441.62 932.91,475.20 933.27,462.21 933.63,460.01 933.99,486.52 934.35,493.73 934.71,485.52 935.07,472.60 935.43,483.28 935.79,490.68 936.15,474.09 936.51,471.70 936.87,486.70 937.23,487.15 937.59,491.23 937.95,488.94 938.31,478.88 938.67,447.29 939.03,450.73 939.39,415.99 939.75,447.44 940.11,473.43 940.47,457.81 940.83,476.00 941.19,472.10 941.55,484.27 941.91,490.17 942.27,471.97 942.63,417.40 942.99,406.81 943.35,417.11 943.71,433.07 944.07,438.80 944.43,451.39 944.79,475.13 945.15,485.44 945.51,484.14 945.87,463.84 946.23,487.67 946.59,451.73 946.95,428.72 947.31,444.08 947.67,473.65 948.03,485.73 948.39,440.75 948.75,441.43 949.11,470.73 949.47,478.72 949.83,484.84 950.19,492.79 950.55,480.28 950.91,470.98 951.27,468.80 951.63,469.11 951.99,478.15 952.35,483.18 952.71,482.73 953.07,470.26 953.43,426.20 953.79,405.63 954.15,431.22 954.51,441.50 954.87,487.93 955.23,492.19 955.59,488.96 955.95,490.47 956.31,480.87 956.67,471.13 957.03,471.50 957.39,486.29 957.76,483.71 958.12,463.56 958.48,467.89 958.84,482.87 959.20,488.45 959.56,468.63 959.92,442.74 960.28,443.30 960.64,473.04 961.00,484.77 961.36,489.92 961.72,479.76 962.08,459.24 962.44,481.41 962.80,419.14 963.16,402.32 963.52,463.54 963.88,488.92 964.24,451.87 964.60,429.39 964.96,464.81 965.32,491.25 965.68,482.62 966.04,494.19 966.40,490.55 966.76,480.95 967.12,484.56 967.48,494.71 967.84,487.87 968.20,471.21 968.56,488.01 968.92,493.59 969.28,483.90 969.64,477.09 970.00,421.71" fill="none" stroke="#275d8c" stroke-width="1.5"/>
  <text x="70" y="536" font-family="Arial, sans-serif" font-size="12" fill="#1f2933">frecuencia normalizada por paso par; max=0.249950</text>
  <text x="16" y="53" font-family="Arial, sans-serif" font-size="12" fill="#1f2933" transform="rotate(-90 16,53)">log10(potencia + 1); max=6.048</text>
</svg>
