<svg xmlns="http://www.w3.org/2000/svg" width="1000" height="560" viewBox="0 0 1000 560">
  <rect width="100%" height="100%" fill="#fbfaf7"/>
  <text x="70" y="24" font-family="Arial, sans-serif" font-size="18" fill="#1f2933">Transformada de Goldbach - espectro de potencia</text>
  <line x1="70" y1="495" x2="970" y2="495" stroke="#1f2933" stroke-width="1"/>
  <line x1="70" y1="35" x2="70" y2="495" stroke="#1f2933" stroke-width="1"/>
  <polyline points="70.36,35.00 70.72,137.91 71.08,189.79 71.44,237.87 71.80,238.80 72.16,274.13 72.52,302.83 72.88,270.13 73.24,282.31 73.60,275.47 73.96,330.28 74.32,297.60 74.68,332.76 75.04,259.02 75.40,251.37 75.76,286.69 76.12,281.41 76.48,326.53 76.84,369.33 77.20,326.06 77.56,335.86 77.92,268.23 78.28,259.54 78.64,283.42 79.00,282.94 79.36,264.85 79.72,274.60 80.08,314.41 80.44,365.33 80.80,288.36 81.16,283.74 81.52,346.35 81.88,284.72 82.24,307.28 82.61,264.59 82.97,287.19 83.33,337.89 83.69,326.43 84.05,327.19 84.41,317.78 84.77,355.97 85.13,302.96 85.49,291.48 85.85,308.75 86.21,323.27 86.57,322.64 86.93,289.04 87.29,278.03 87.65,290.42 88.01,263.45 88.37,286.53 88.73,298.36 89.09,309.54 89.45,302.31 89.81,291.08 90.17,289.57 90.53,264.94 90.89,277.85 91.25,322.42 91.61,332.54 91.97,333.36 92.33,290.33 92.69,265.88 93.05,291.23 93.41,353.02 93.77,402.44 94.13,340.32 94.49,309.88 94.85,287.99 95.21,278.98 95.57,275.51 95.93,280.39 96.29,296.41 96.65,286.35 97.01,267.30 97.37,262.72 97.73,282.06 98.09,325.88 98.45,360.80 98.81,366.21 99.17,345.72 99.53,305.88 99.89,334.05 100.25,291.10 100.61,266.03 100.97,274.27 101.33,287.30 101.69,287.79 102.05,301.69 102.41,285.34 102.77,293.73 103.13,376.51 103.49,310.28 103.85,281.77 104.21,280.06 104.57,311.45 104.93,464.46 105.29,324.82 105.65,336.48 106.01,373.64 106.37,340.19 106.73,290.41 107.09,282.86 107.45,318.97 107.82,347.55 108.18,315.33 108.54,332.83 108.90,286.37 109.26,288.68 109.62,307.03 109.98,314.39 110.34,322.55 110.70,367.45 111.06,343.50 111.42,329.80 111.78,327.08 112.14,328.53 112.50,329.18 112.86,320.69 113.22,322.12 113.58,302.10 113.94,270.32 114.30,279.44 114.66,330.51 115.02,346.32 115.38,307.19 115.74,278.53 116.10,260.61 116.46,275.32 116.82,300.24 117.18,349.81 117.54,349.48 117.90,404.96 118.26,324.19 118.62,272.61 118.98,268.19 119.34,327.78 119.70,292.75 120.06,274.88 120.42,252.89 120.78,253.48 121.14,251.88 121.50,255.64 121.86,286.42 122.22,280.46 122.58,294.55 122.94,342.83 123.30,341.01 123.66,320.36 124.02,274.67 124.38,249.46 124.74,263.38 125.10,288.00 125.46,266.89 125.82,264.50 126.18,296.43 126.54,319.66 126.90,316.13 127.26,331.48 127.62,307.66 127.98,279.97 128.34,295.80 128.70,291.41 129.06,304.59 129.42,339.81 129.78,354.80 130.14,337.39 130.50,315.19 130.86,303.28 131.22,333.75 131.58,330.14 131.94,290.00 132.30,291.89 132.67,317.35 133.03,295.06 133.39,279.75 133.75,299.85 134.11,316.29 134.47,298.28 134.83,325.37 135.19,307.54 135.55,270.36 135.91,279.98 136.27,369.69 136.63,362.89 136.99,375.97 137.35,356.21 137.71,356.13 138.07,319.04 138.43,311.81 138.79,316.98 139.15,337.80 139.51,295.76 139.87,287.97 140.23,273.91 140.59,257.32 140.95,256.60 141.31,294.71 141.67,370.10 142.03,353.11 142.39,389.92 142.75,325.19 143.11,311.68 143.47,338.02 143.83,341.46 144.19,342.75 144.55,384.65 144.91,347.32 145.27,363.55 145.63,365.73 145.99,369.42 146.35,321.88 146.71,332.99 147.07,357.34 147.43,341.86 147.79,307.36 148.15,253.99 148.51,252.90 148.87,287.07 149.23,300.72 149.59,316.83 149.95,375.26 150.31,353.49 150.67,324.21 151.03,330.52 151.39,379.17 151.75,345.74 152.11,327.48 152.47,285.74 152.83,256.32 153.19,269.90 153.55,275.67 153.91,286.41 154.27,318.53 154.63,288.37 154.99,279.34 155.35,224.21 155.71,199.46 156.07,225.22 156.43,330.35 156.79,303.22 157.15,309.92 157.52,341.32 157.88,352.34 158.24,280.70 158.60,267.13 158.96,303.34 159.32,357.67 159.68,351.39 160.04,329.24 160.40,287.72 160.76,303.00 161.12,307.42 161.48,278.60 161.84,278.65 162.20,267.19 162.56,285.24 162.92,387.91 163.28,345.85 163.64,368.96 164.00,447.35 164.36,285.74 164.72,248.80 165.08,262.89 165.44,333.15 165.80,355.81 166.16,314.96 166.52,279.61 166.88,282.15 167.24,291.17 167.60,316.52 167.96,319.33 168.32,300.27 168.68,289.99 169.04,290.77 169.40,325.08 169.76,358.43 170.12,376.16 170.48,350.98 170.84,308.13 171.20,307.75 171.56,360.29 171.92,312.73 172.28,344.10 172.64,271.66 173.00,253.24 173.36,271.70 173.72,321.49 174.08,347.88 174.44,330.08 174.80,345.29 175.16,330.92 175.52,244.82 175.88,222.31 176.24,256.30 176.60,287.90 176.96,307.78 177.32,327.34 177.68,365.19 178.04,368.83 178.40,349.46 178.76,280.38 179.12,245.06 179.48,257.21 179.84,342.53 180.20,368.59 180.56,364.34 180.92,328.48 181.28,341.03 181.64,346.57 182.00,329.28 182.36,324.98 182.73,327.35 183.09,333.07 183.45,346.48 183.81,328.40 184.17,311.61 184.53,418.21 184.89,304.36 185.25,292.72 185.61,285.67 185.97,271.08 186.33,278.37 186.69,336.24 187.05,332.87 187.41,317.25 187.77,305.36 188.13,309.73 188.49,303.95 188.85,256.64 189.21,256.98 189.57,209.14 189.93,174.26 190.29,185.05 190.65,246.66 191.01,296.07 191.37,306.44 191.73,298.28 192.09,274.58 192.45,292.50 192.81,353.49 193.17,349.39 193.53,348.16 193.89,286.97 194.25,290.25 194.61,322.27 194.97,293.96 195.33,287.73 195.69,304.67 196.05,285.68 196.41,280.46 196.77,329.94 197.13,331.83 197.49,399.39 197.85,320.60 198.21,334.11 198.57,332.69 198.93,299.36 199.29,282.77 199.65,295.58 200.01,302.75 200.37,275.62 200.73,268.49 201.09,293.86 201.45,298.22 201.81,268.30 202.17,273.77 202.53,315.89 202.89,387.36 203.25,360.48 203.61,345.63 203.97,305.13 204.33,288.91 204.69,304.39 205.05,319.62 205.41,282.72 205.77,275.32 206.13,293.68 206.49,335.70 206.85,343.72 207.21,292.52 207.58,274.05 207.94,273.60 208.30,229.34 208.66,220.14 209.02,266.02 209.38,321.33 209.74,324.53 210.10,317.69 210.46,299.78 210.82,300.12 211.18,300.04 211.54,323.35 211.90,322.02 212.26,335.75 212.62,291.67 212.98,299.88 213.34,297.52 213.70,302.78 214.06,311.42 214.42,307.59 214.78,309.66 215.14,345.96 215.50,316.85 215.86,317.24 216.22,329.95 216.58,303.41 216.94,281.88 217.30,292.62 217.66,305.05 218.02,322.99 218.38,321.36 218.74,337.46 219.10,372.66 219.46,353.80 219.82,348.62 220.18,338.55 220.54,327.71 220.90,309.37 221.26,290.75 221.62,275.46 221.98,267.45 222.34,292.91 222.70,338.86 223.06,292.49 223.42,307.02 223.78,315.69 224.14,268.46 224.50,268.41 224.86,280.14 225.22,309.28 225.58,362.69 225.94,347.49 226.30,267.50 226.66,251.51 227.02,278.50 227.38,319.69 227.74,274.49 228.10,264.24 228.46,305.35 228.82,394.55 229.18,377.43 229.54,351.81 229.90,356.92 230.26,392.98 230.62,368.45 230.98,302.80 231.34,275.39 231.70,302.45 232.06,260.15 232.42,272.11 232.79,320.43 233.15,247.97 233.51,197.91 233.87,198.27 234.23,249.44 234.59,345.40 234.95,394.76 235.31,376.14 235.67,337.28 236.03,313.76 236.39,314.89 236.75,339.10 237.11,286.15 237.47,277.26 237.83,310.18 238.19,351.00 238.55,346.30 238.91,359.05 239.27,340.67 239.63,341.95 239.99,320.66 240.35,296.93 240.71,294.69 241.07,241.25 241.43,214.38 241.79,246.13 242.15,287.35 242.51,291.46 242.87,318.29 243.23,338.83 243.59,344.10 243.95,286.81 244.31,250.04 244.67,260.28 245.03,282.46 245.39,240.97 245.75,260.42 246.11,298.96 246.47,281.05 246.83,293.05 247.19,291.03 247.55,320.39 247.91,293.25 248.27,289.46 248.63,300.98 248.99,376.70 249.35,318.98 249.71,324.46 250.07,373.86 250.43,378.09 250.79,430.83 251.15,450.81 251.51,391.59 251.87,359.82 252.23,361.81 252.59,343.12 252.95,331.14 253.31,320.34 253.67,345.21 254.03,325.07 254.39,286.54 254.75,273.55 255.11,323.88 255.47,406.66 255.83,310.34 256.19,280.32 256.55,293.30 256.91,298.40 257.27,290.54 257.64,354.65 258.00,303.05 258.36,296.37 258.72,282.52 259.08,304.83 259.44,243.32 259.80,258.38 260.16,345.56 260.52,303.62 260.88,309.00 261.24,305.75 261.60,309.91 261.96,373.59 262.32,389.04 262.68,409.67 263.04,400.79 263.40,323.99 263.76,305.86 264.12,306.46 264.48,292.84 264.84,287.64 265.20,304.67 265.56,332.53 265.92,339.63 266.28,286.37 266.64,280.96 267.00,294.37 267.36,299.66 267.72,343.33 268.08,311.93 268.44,320.25 268.80,366.50 269.16,392.27 269.52,391.19 269.88,445.65 270.24,416.85 270.60,472.57 270.96,423.58 271.32,367.85 271.68,320.73 272.04,288.76 272.40,299.93 272.76,313.35 273.12,301.62 273.48,299.88 273.84,284.58 274.20,285.71 274.56,305.63 274.92,307.48 275.28,284.64 275.64,262.92 276.00,274.59 276.36,349.72 276.72,290.90 277.08,330.70 277.44,301.38 277.80,312.39 278.16,373.93 278.52,343.34 278.88,325.72 279.24,291.69 279.60,297.61 279.96,328.96 280.32,292.83 280.68,293.59 281.04,302.52 281.40,252.25 281.76,223.53 282.12,237.49 282.48,311.36 282.85,315.98 283.21,332.85 283.57,419.32 283.93,479.45 284.29,369.92 284.65,327.88 285.01,304.04 285.37,330.13 285.73,379.69 286.09,370.97 286.45,393.74 286.81,362.10 287.17,336.92 287.53,300.82 287.89,262.78 288.25,256.09 288.61,293.50 288.97,393.42 289.33,305.63 289.69,276.53 290.05,296.28 290.41,369.59 290.77,321.79 291.13,280.04 291.49,286.76 291.85,336.99 292.21,350.63 292.57,338.99 292.93,363.76 293.29,345.66 293.65,312.08 294.01,305.38 294.37,352.29 294.73,350.55 295.09,358.57 295.45,354.88 295.81,407.42 296.17,351.29 296.53,360.96 296.89,329.32 297.25,293.76 297.61,289.84 297.97,338.23 298.33,432.74 298.69,296.57 299.05,283.32 299.41,305.25 299.77,303.31 300.13,321.71 300.49,276.57 300.85,255.84 301.21,285.80 301.57,378.35 301.93,307.38 302.29,274.75 302.65,287.45 303.01,319.90 303.37,296.09 303.73,274.64 304.09,301.65 304.45,274.30 304.81,254.49 305.17,269.74 305.53,310.02 305.89,283.10 306.25,282.55 306.61,342.76 306.97,342.58 307.33,328.88 307.70,353.39 308.06,379.08 308.42,405.48 308.78,354.42 309.14,294.63 309.50,243.98 309.86,183.79 310.22,180.46 310.58,223.57 310.94,334.36 311.30,351.18 311.66,322.46 312.02,318.05 312.38,277.14 312.74,289.04 313.10,311.95 313.46,333.48 313.82,324.07 314.18,306.11 314.54,294.24 314.90,314.22 315.26,338.96 315.62,313.77 315.98,284.33 316.34,275.21 316.70,294.39 317.06,279.25 317.42,281.71 317.78,280.33 318.14,265.57 318.50,281.99 318.86,320.47 319.22,279.56 319.58,280.03 319.94,327.97 320.30,309.59 320.66,328.03 321.02,287.43 321.38,281.26 321.74,299.53 322.10,311.43 322.46,311.45 322.82,316.52 323.18,337.88 323.54,324.48 323.90,304.71 324.26,323.67 324.62,337.86 324.98,297.25 325.34,280.92 325.70,286.58 326.06,280.52 326.42,310.88 326.78,184.24 327.14,154.11 327.50,170.84 327.86,250.87 328.22,293.29 328.58,278.91 328.94,299.59 329.30,292.48 329.66,273.61 330.02,307.09 330.38,306.81 330.74,322.48 331.10,361.67 331.46,318.99 331.82,287.91 332.18,296.93 332.55,352.25 332.91,281.89 333.27,258.23 333.63,275.24 333.99,353.79 334.35,334.03 334.71,305.64 335.07,310.66 335.43,303.42 335.79,276.29 336.15,296.59 336.51,337.22 336.87,306.88 337.23,321.16 337.59,336.71 337.95,277.33 338.31,290.62 338.67,262.15 339.03,276.05 339.39,334.39 339.75,309.73 340.11,322.74 340.47,364.06 340.83,304.03 341.19,288.19 341.55,289.17 341.91,318.34 342.27,260.46 342.63,224.09 342.99,233.43 343.35,296.54 343.71,338.33 344.07,324.97 344.43,316.30 344.79,371.10 345.15,372.95 345.51,362.40 345.87,378.08 346.23,373.48 346.59,232.46 346.95,199.70 347.31,214.22 347.67,287.85 348.03,301.93 348.39,317.00 348.75,321.62 349.11,347.80 349.47,362.55 349.83,406.77 350.19,310.89 350.55,306.90 350.91,343.64 351.27,339.21 351.63,316.09 351.99,326.42 352.35,293.47 352.71,287.76 353.07,311.70 353.43,344.65 353.79,272.14 354.15,246.89 354.51,265.76 354.87,296.49 355.23,358.95 355.59,309.32 355.95,347.74 356.31,347.89 356.67,282.57 357.03,267.95 357.39,296.49 357.76,356.46 358.12,326.67 358.48,325.95 358.84,362.04 359.20,393.81 359.56,355.98 359.92,343.45 360.28,311.19 360.64,304.23 361.00,336.55 361.36,276.77 361.72,243.86 362.08,251.88 362.44,324.96 362.80,288.35 363.16,276.89 363.52,290.14 363.88,321.80 364.24,329.41 364.60,299.43 364.96,352.82 365.32,308.86 365.68,310.26 366.04,307.70 366.40,341.55 366.76,401.15 367.12,343.69 367.48,314.43 367.84,307.64 368.20,305.53 368.56,336.81 368.92,346.41 369.28,309.84 369.64,307.42 370.00,305.80 370.36,311.02 370.72,325.88 371.08,341.02 371.44,343.69 371.80,293.07 372.16,287.59 372.52,313.01 372.88,374.82 373.24,393.78 373.60,322.08 373.96,276.18 374.32,278.99 374.68,339.39 375.04,305.70 375.40,284.87 375.76,281.73 376.12,308.67 376.48,307.06 376.84,358.74 377.20,333.41 377.56,339.04 377.92,317.26 378.28,270.23 378.64,260.79 379.00,294.53 379.36,338.43 379.72,311.55 380.08,295.72 380.44,269.58 380.80,278.55 381.16,321.90 381.52,339.94 381.88,353.43 382.24,326.12 382.61,287.24 382.97,257.22 383.33,274.85 383.69,345.58 384.05,325.62 384.41,329.86 384.77,344.11 385.13,329.56 385.49,304.88 385.85,292.54 386.21,321.29 386.57,333.22 386.93,321.28 387.29,266.68 387.65,238.17 388.01,254.01 388.37,295.01 388.73,423.68 389.09,312.02 389.45,357.28 389.81,331.02 390.17,427.13 390.53,293.90 390.89,275.84 391.25,301.59 391.61,351.76 391.97,317.96 392.33,328.02 392.69,288.82 393.05,265.26 393.41,300.01 393.77,277.08 394.13,315.60 394.49,383.78 394.85,416.91 395.21,367.92 395.57,353.25 395.93,318.44 396.29,298.12 396.65,265.57 397.01,210.26 397.37,191.72 397.73,217.98 398.09,278.75 398.45,362.90 398.81,301.84 399.17,284.94 399.53,312.76 399.89,339.95 400.25,306.73 400.61,313.84 400.97,333.31 401.33,301.61 401.69,311.16 402.05,331.62 402.41,366.67 402.77,351.01 403.13,345.32 403.49,335.38 403.85,301.75 404.21,304.40 404.57,357.42 404.93,348.37 405.29,329.62 405.65,326.42 406.01,333.49 406.37,293.53 406.73,278.24 407.09,293.61 407.45,310.32 407.82,308.61 408.18,351.15 408.54,356.49 408.90,297.72 409.26,284.41 409.62,315.89 409.98,300.25 410.34,261.75 410.70,281.13 411.06,334.34 411.42,358.14 411.78,359.01 412.14,310.47 412.50,227.85 412.86,199.78 413.22,216.80 413.58,286.38 413.94,365.28 414.30,360.78 414.66,266.58 415.02,264.26 415.38,314.39 415.74,318.59 416.10,324.61 416.46,382.93 416.82,303.44 417.18,267.50 417.54,264.99 417.90,290.86 418.26,291.49 418.62,293.78 418.98,307.01 419.34,288.63 419.70,353.49 420.06,329.93 420.42,324.01 420.78,291.08 421.14,364.70 421.50,310.37 421.86,301.93 422.22,296.01 422.58,289.15 422.94,287.52 423.30,301.63 423.66,318.93 424.02,359.95 424.38,364.46 424.74,366.12 425.10,373.87 425.46,321.74 425.82,317.58 426.18,384.81 426.54,312.85 426.90,331.66 427.26,324.95 427.62,326.50 427.98,355.20 428.34,290.09 428.70,294.38 429.06,270.29 429.42,212.68 429.78,138.11 430.14,124.56 430.50,160.75 430.86,240.27 431.22,279.61 431.58,303.14 431.94,285.78 432.30,301.99 432.67,324.96 433.03,304.30 433.39,290.57 433.75,293.32 434.11,293.31 434.47,328.77 434.83,356.97 435.19,299.11 435.55,297.41 435.91,310.81 436.27,318.88 436.63,330.91 436.99,343.70 437.35,373.97 437.71,387.76 438.07,364.54 438.43,370.48 438.79,316.83 439.15,258.16 439.51,255.25 439.87,314.35 440.23,265.11 440.59,300.94 440.95,353.08 441.31,339.77 441.67,322.68 442.03,304.26 442.39,263.78 442.75,275.22 443.11,286.33 443.47,284.79 443.83,341.16 444.19,303.35 444.55,320.97 444.91,320.42 445.27,362.39 445.63,315.11 445.99,296.89 446.35,301.39 446.71,277.69 447.07,259.89 447.43,287.74 447.79,324.63 448.15,301.52 448.51,261.64 448.87,230.15 449.23,241.81 449.59,323.73 449.95,440.78 450.31,285.08 450.67,286.29 451.03,302.43 451.39,295.79 451.75,241.13 452.11,249.49 452.47,334.80 452.83,306.39 453.19,265.83 453.55,265.48 453.91,309.86 454.27,332.08 454.63,297.65 454.99,299.89 455.35,314.69 455.71,335.85 456.07,332.39 456.43,324.76 456.79,345.31 457.15,310.32 457.52,308.67 457.88,273.56 458.24,256.50 458.60,279.28 458.96,321.96 459.32,295.27 459.68,314.44 460.04,297.54 460.40,288.38 460.76,315.52 461.12,274.75 461.48,260.04 461.84,301.52 462.20,317.11 462.56,294.54 462.92,300.55 463.28,330.18 463.64,382.13 464.00,360.88 464.36,337.56 464.72,390.80 465.08,315.34 465.44,329.62 465.80,383.27 466.16,325.65 466.52,328.37 466.88,391.57 467.24,310.09 467.60,312.45 467.96,276.72 468.32,274.96 468.68,304.27 469.04,338.06 469.40,368.96 469.76,409.14 470.12,363.18 470.48,315.30 470.84,303.11 471.20,323.05 471.56,370.04 471.92,345.82 472.28,345.16 472.64,313.21 473.00,322.93 473.36,333.64 473.72,369.36 474.08,339.55 474.44,398.39 474.80,340.66 475.16,298.29 475.52,277.11 475.88,298.05 476.24,317.76 476.60,315.75 476.96,325.59 477.32,307.61 477.68,290.81 478.04,326.63 478.40,355.32 478.76,322.80 479.12,365.08 479.48,339.87 479.84,347.89 480.20,321.72 480.56,251.21 480.92,251.32 481.28,298.77 481.64,264.98 482.00,319.28 482.36,330.34 482.73,335.54 483.09,361.80 483.45,416.62 483.81,464.16 484.17,368.81 484.53,310.04 484.89,291.38 485.25,222.29 485.61,217.87 485.97,260.90 486.33,326.00 486.69,385.20 487.05,328.55 487.41,283.40 487.77,285.35 488.13,329.27 488.49,307.70 488.85,298.22 489.21,300.49 489.57,280.50 489.93,293.74 490.29,349.14 490.65,340.09 491.01,325.64 491.37,289.02 491.73,271.22 492.09,291.83 492.45,408.59 492.81,291.11 493.17,242.70 493.53,218.39 493.89,235.13 494.25,300.90 494.61,286.68 494.97,306.89 495.33,287.67 495.69,283.72 496.05,317.44 496.41,352.71 496.77,300.41 497.13,279.37 497.49,298.32 497.85,327.70 498.21,231.98 498.57,199.67 498.93,216.57 499.29,320.27 499.65,401.98 500.01,303.78 500.37,338.16 500.73,298.16 501.09,344.38 501.45,389.69 501.81,359.22 502.17,360.96 502.53,308.86 502.89,295.39 503.25,313.69 503.61,305.35 503.97,298.53 504.33,309.84 504.69,301.59 505.05,324.67 505.41,303.19 505.77,270.33 506.13,250.63 506.49,254.34 506.85,294.79 507.21,314.61 507.58,328.62 507.94,326.12 508.30,318.16 508.66,299.38 509.02,300.58 509.38,297.87 509.74,360.31 510.10,368.36 510.46,381.98 510.82,366.36 511.18,316.45 511.54,313.06 511.90,318.46 512.26,312.27 512.62,304.29 512.98,387.70 513.34,266.28 513.70,266.60 514.06,337.07 514.42,308.59 514.78,299.73 515.14,300.74 515.50,286.42 515.86,276.21 516.22,286.25 516.58,321.88 516.94,277.45 517.30,279.91 517.66,307.50 518.02,329.45 518.38,341.22 518.74,433.58 519.10,334.54 519.46,333.14 519.82,346.34 520.18,351.76 520.54,327.51 520.90,331.96 521.26,381.71 521.62,312.06 521.98,289.62 522.34,304.78 522.70,344.09 523.06,331.60 523.42,343.15 523.78,354.53 524.14,367.35 524.50,350.82 524.86,330.86 525.22,308.25 525.58,317.30 525.94,367.99 526.30,339.22 526.66,343.21 527.02,377.36 527.38,322.89 527.74,331.11 528.10,293.77 528.46,269.45 528.82,265.40 529.18,284.35 529.54,307.18 529.90,300.71 530.26,308.49 530.62,311.19 530.98,364.59 531.34,294.38 531.70,284.04 532.06,284.06 532.42,259.54 532.79,345.22 533.15,301.98 533.51,301.00 533.87,301.43 534.23,310.18 534.59,283.90 534.95,305.00 535.31,309.53 535.67,278.03 536.03,286.79 536.39,345.00 536.75,370.07 537.11,445.00 537.47,318.11 537.83,314.30 538.19,321.89 538.55,334.33 538.91,350.46 539.27,281.74 539.63,261.53 539.99,282.06 540.35,324.48 540.71,295.80 541.07,289.64 541.43,356.46 541.79,357.45 542.15,330.95 542.51,323.16 542.87,325.79 543.23,340.55 543.59,248.15 543.95,244.40 544.31,295.77 544.67,325.55 545.03,332.54 545.39,288.65 545.75,287.89 546.11,361.69 546.47,342.47 546.83,353.72 547.19,328.32 547.55,326.89 547.91,296.56 548.27,275.74 548.63,295.00 548.99,294.92 549.35,308.41 549.71,201.54 550.07,173.17 550.43,193.76 550.79,304.18 551.15,298.61 551.51,363.06 551.87,271.03 552.23,280.68 552.59,316.72 552.95,299.78 553.31,318.26 553.67,330.93 554.03,327.12 554.39,359.06 554.75,392.79 555.11,369.20 555.47,394.61 555.83,348.20 556.19,292.28 556.55,279.67 556.91,303.28 557.27,314.65 557.64,360.45 558.00,306.70 558.36,268.71 558.72,275.85 559.08,396.12 559.44,341.33 559.80,379.05 560.16,316.90 560.52,232.86 560.88,195.70 561.24,206.64 561.60,268.63 561.96,297.64 562.32,296.65 562.68,386.02 563.04,334.73 563.40,355.12 563.76,318.82 564.12,271.24 564.48,260.73 564.84,275.37 565.20,316.57 565.56,295.19 565.92,290.05 566.28,278.91 566.64,249.04 567.00,258.47 567.36,309.50 567.72,318.19 568.08,296.29 568.44,323.28 568.80,349.64 569.16,295.30 569.52,307.58 569.88,325.27 570.24,347.49 570.60,347.16 570.96,319.41 571.32,301.48 571.68,298.25 572.04,318.92 572.40,333.35 572.76,322.20 573.12,308.55 573.48,331.91 573.84,366.84 574.20,318.55 574.56,332.96 574.92,310.56 575.28,299.59 575.64,340.64 576.00,368.65 576.36,326.27 576.72,304.27 577.08,293.52 577.44,264.49 577.80,247.63 578.16,266.96 578.52,308.28 578.88,285.12 579.24,283.06 579.60,291.94 579.96,302.11 580.32,316.22 580.68,360.09 581.04,362.91 581.40,296.90 581.76,289.83 582.12,331.12 582.48,321.60 582.85,268.29 583.21,270.75 583.57,300.48 583.93,193.57 584.29,153.13 584.65,162.00 585.01,228.59 585.37,274.37 585.73,308.51 586.09,334.45 586.45,339.37 586.81,345.37 587.17,377.76 587.53,306.61 587.89,293.80 588.25,309.33 588.61,344.16 588.97,290.62 589.33,311.26 589.69,401.68 590.05,380.71 590.41,299.80 590.77,276.55 591.13,290.24 591.49,296.79 591.85,293.14 592.21,353.58 592.57,289.54 592.93,286.33 593.29,288.66 593.65,286.45 594.01,286.38 594.37,304.30 594.73,348.72 595.09,350.98 595.45,333.24 595.81,335.06 596.17,290.80 596.53,286.37 596.89,307.39 597.25,338.92 597.61,299.11 597.97,275.29 598.33,278.05 598.69,274.82 599.05,260.31 599.41,236.14 599.77,247.17 600.13,305.19 600.49,290.68 600.85,303.11 601.21,333.12 601.57,346.18 601.93,352.97 602.29,377.68 602.65,395.58 603.01,423.94 603.37,379.55 603.73,346.28 604.09,383.32 604.45,353.12 604.81,342.99 605.17,296.35 605.53,298.10 605.89,316.00 606.25,321.70 606.61,295.70 606.97,270.57 607.33,275.72 607.70,283.69 608.06,287.34 608.42,337.28 608.78,381.70 609.14,330.11 609.50,339.65 609.86,385.92 610.22,341.95 610.58,338.76 610.94,336.87 611.30,346.19 611.66,274.85 612.02,256.59 612.38,263.70 612.74,291.20 613.10,343.80 613.46,331.99 613.82,272.88 614.18,251.32 614.54,268.74 614.90,358.25 615.26,264.53 615.62,243.80 615.98,266.36 616.34,322.73 616.70,308.43 617.06,301.71 617.42,303.24 617.78,255.53 618.14,246.75 618.50,264.52 618.86,284.31 619.22,304.57 619.58,292.88 619.94,333.74 620.30,378.01 620.66,359.19 621.02,336.06 621.38,312.79 621.74,311.93 622.10,347.30 622.46,396.53 622.82,333.93 623.18,308.15 623.54,236.45 623.90,210.92 624.26,227.91 624.62,267.89 624.98,277.12 625.34,300.23 625.70,372.12 626.06,324.33 626.42,305.00 626.78,308.17 627.14,377.61 627.50,308.94 627.86,295.11 628.22,303.93 628.58,317.51 628.94,289.08 629.30,296.29 629.66,308.95 630.02,284.91 630.38,319.47 630.74,347.93 631.10,368.11 631.46,367.85 631.82,352.43 632.18,377.80 632.55,364.68 632.91,312.05 633.27,297.17 633.63,345.66 633.99,299.92 634.35,300.65 634.71,283.87 635.07,270.05 635.43,296.42 635.79,251.07 636.15,262.98 636.51,285.49 636.87,312.37 637.23,371.83 637.59,390.28 637.95,316.16 638.31,245.67 638.67,230.81 639.03,263.55 639.39,292.19 639.75,331.21 640.11,345.37 640.47,301.89 640.83,292.65 641.19,320.22 641.55,307.83 641.91,282.53 642.27,322.02 642.63,313.38 642.99,328.59 643.35,348.22 643.71,290.06 644.07,295.11 644.43,288.81 644.79,290.74 645.15,310.58 645.51,385.98 645.87,393.69 646.23,353.07 646.59,343.18 646.95,316.28 647.31,298.17 647.67,308.14 648.03,327.84 648.39,350.24 648.75,330.04 649.11,346.01 649.47,289.92 649.83,273.70 650.19,292.01 650.55,338.20 650.91,304.31 651.27,391.28 651.63,322.98 651.99,342.41 652.35,295.30 652.71,318.25 653.07,321.41 653.43,352.35 653.79,297.07 654.15,280.83 654.51,279.06 654.87,316.05 655.23,313.72 655.59,308.34 655.95,324.40 656.31,291.41 656.67,321.39 657.03,423.76 657.39,314.97 657.76,304.05 658.12,287.60 658.48,266.79 658.84,297.57 659.20,300.20 659.56,323.95 659.92,334.53 660.28,327.67 660.64,347.79 661.00,388.70 661.36,342.86 661.72,318.10 662.08,286.86 662.44,250.81 662.80,240.60 663.16,264.65 663.52,310.67 663.88,358.35 664.24,355.70 664.60,289.29 664.96,283.04 665.32,291.05 665.68,296.61 666.04,304.16 666.40,290.84 666.76,311.75 667.12,327.73 667.48,283.80 667.84,295.63 668.20,319.69 668.56,246.73 668.92,315.51 669.28,208.52 669.64,111.00 670.00,68.16 670.36,76.28 670.72,142.89 671.08,219.46 671.44,251.02 671.80,274.01 672.16,288.34 672.52,271.20 672.88,293.14 673.24,316.99 673.60,276.87 673.96,284.08 674.32,289.67 674.68,279.94 675.04,358.95 675.40,339.08 675.76,345.88 676.12,304.37 676.48,297.18 676.84,327.62 677.20,291.41 677.56,287.78 677.92,270.01 678.28,291.82 678.64,319.10 679.00,314.35 679.36,287.77 679.72,302.93 680.08,320.56 680.44,311.64 680.80,361.21 681.16,330.80 681.52,311.84 681.88,349.76 682.24,338.48 682.61,304.00 682.97,323.05 683.33,331.21 683.69,303.22 684.05,286.34 684.41,304.38 684.77,328.61 685.13,327.65 685.49,354.27 685.85,362.81 686.21,350.27 686.57,330.41 686.93,280.56 687.29,251.36 687.65,258.73 688.01,279.68 688.37,286.96 688.73,288.98 689.09,329.57 689.45,309.71 689.81,291.73 690.17,333.37 690.53,277.22 690.89,273.32 691.25,326.61 691.61,333.64 691.97,306.90 692.33,286.82 692.69,304.12 693.05,363.94 693.41,317.04 693.77,359.83 694.13,323.51 694.49,319.30 694.85,306.12 695.21,298.14 695.57,349.79 695.93,297.14 696.29,270.12 696.65,317.39 697.01,295.01 697.37,308.81 697.73,341.62 698.09,306.15 698.45,315.06 698.81,347.46 699.17,343.79 699.53,339.71 699.89,352.19 700.25,352.33 700.61,341.48 700.97,329.89 701.33,302.55 701.69,291.07 702.05,298.34 702.41,274.93 702.77,272.84 703.13,311.60 703.49,334.92 703.85,334.16 704.21,315.00 704.57,281.75 704.93,305.24 705.29,239.70 705.65,256.53 706.01,313.36 706.37,334.20 706.73,316.17 707.09,293.03 707.45,299.40 707.82,331.99 708.18,338.46 708.54,315.25 708.90,287.25 709.26,301.23 709.62,355.36 709.98,406.11 710.34,381.23 710.70,307.79 711.06,297.57 711.42,381.62 711.78,326.65 712.14,321.91 712.50,313.61 712.86,336.01 713.22,364.93 713.58,322.94 713.94,318.14 714.30,372.95 714.66,315.11 715.02,316.19 715.38,337.94 715.74,326.82 716.10,282.82 716.46,284.73 716.82,301.76 717.18,290.92 717.54,282.55 717.90,321.42 718.26,385.14 718.62,416.09 718.98,307.66 719.34,294.69 719.70,308.89 720.06,298.36 720.42,311.67 720.78,307.41 721.14,275.73 721.50,275.48 721.86,291.81 722.22,306.17 722.58,330.27 722.94,352.14 723.30,293.00 723.66,292.60 724.02,263.59 724.38,203.30 724.74,194.28 725.10,241.16 725.46,286.96 725.82,353.76 726.18,334.24 726.54,389.20 726.90,333.68 727.26,294.32 727.62,294.59 727.98,334.18 728.34,334.61 728.70,314.44 729.06,327.86 729.42,334.48 729.78,298.00 730.14,319.80 730.50,327.31 730.86,334.31 731.22,387.22 731.58,341.82 731.94,292.96 732.30,293.64 732.67,342.43 733.03,256.61 733.39,241.42 733.75,268.57 734.11,391.42 734.47,304.78 734.83,295.20 735.19,331.62 735.55,296.31 735.91,291.50 736.27,327.11 736.63,334.92 736.99,371.98 737.35,316.52 737.71,297.06 738.07,330.18 738.43,286.44 738.79,270.41 739.15,309.63 739.51,355.41 739.87,315.78 740.23,315.35 740.59,304.61 740.95,292.45 741.31,279.82 741.67,278.87 742.03,303.15 742.39,315.33 742.75,325.83 743.11,325.16 743.47,301.07 743.83,274.43 744.19,276.65 744.55,313.83 744.91,383.21 745.27,420.82 745.63,366.15 745.99,323.48 746.35,339.27 746.71,335.15 747.07,334.64 747.43,334.98 747.79,336.63 748.15,323.53 748.51,323.32 748.87,385.23 749.23,334.41 749.59,323.38 749.95,323.08 750.31,355.24 750.67,308.85 751.03,268.26 751.39,270.88 751.75,318.59 752.11,326.36 752.47,288.33 752.83,266.52 753.19,279.42 753.55,371.01 753.91,297.81 754.27,361.76 754.63,305.63 754.99,335.82 755.35,261.40 755.71,217.56 756.07,221.57 756.43,261.68 756.79,298.89 757.15,304.77 757.52,312.67 757.88,379.32 758.24,324.88 758.60,301.87 758.96,329.48 759.32,311.98 759.68,298.51 760.04,325.72 760.40,325.13 760.76,316.62 761.12,315.58 761.48,329.04 761.84,268.31 762.20,215.70 762.56,210.91 762.92,256.90 763.28,322.66 763.64,336.74 764.00,323.28 764.36,327.69 764.72,314.49 765.08,382.41 765.44,311.96 765.80,289.83 766.16,282.99 766.52,264.43 766.88,255.82 767.24,285.39 767.60,345.76 767.96,321.51 768.32,311.05 768.68,304.84 769.04,281.86 769.40,285.58 769.76,346.64 770.12,359.55 770.48,345.49 770.84,334.71 771.20,335.72 771.56,357.78 771.92,328.18 772.28,283.61 772.64,262.76 773.00,275.91 773.36,320.36 773.72,323.93 774.08,297.12 774.44,260.01 774.80,274.93 775.16,348.71 775.52,318.02 775.88,287.60 776.24,294.59 776.60,354.47 776.96,308.36 777.32,302.62 777.68,302.48 778.04,314.94 778.40,329.01 778.76,303.65 779.12,243.89 779.48,252.25 779.84,317.69 780.20,441.03 780.56,404.22 780.92,419.58 781.28,319.99 781.64,291.84 782.00,299.28 782.36,365.37 782.73,350.93 783.09,343.66 783.45,320.94 783.81,347.83 784.17,336.68 784.53,322.42 784.89,448.33 785.25,314.40 785.61,282.55 785.97,268.88 786.33,285.71 786.69,331.70 787.05,290.07 787.41,308.15 787.77,321.15 788.13,295.12 788.49,298.48 788.85,282.54 789.21,262.60 789.57,189.32 789.93,126.41 790.29,121.39 790.65,167.48 791.01,286.41 791.37,266.32 791.73,307.36 792.09,283.64 792.45,287.22 792.81,372.45 793.17,349.52 793.53,354.74 793.89,321.91 794.25,294.85 794.61,292.49 794.97,304.58 795.33,307.00 795.69,313.63 796.05,307.03 796.41,273.30 796.77,269.64 797.13,272.03 797.49,299.46 797.85,351.59 798.21,368.26 798.57,337.95 798.93,314.73 799.29,345.51 799.65,280.23 800.01,282.23 800.37,344.31 800.73,318.79 801.09,302.89 801.45,316.89 801.81,292.71 802.17,274.56 802.53,305.49 802.89,349.35 803.25,386.43 803.61,418.43 803.97,334.86 804.33,325.91 804.69,367.90 805.05,324.95 805.41,289.45 805.77,269.41 806.13,271.67 806.49,347.17 806.85,339.19 807.21,344.05 807.58,302.55 807.94,308.33 808.30,294.02 808.66,271.90 809.02,284.02 809.38,323.19 809.74,331.06 810.10,327.45 810.46,394.33 810.82,283.95 811.18,241.12 811.54,239.18 811.90,267.86 812.26,299.47 812.62,304.93 812.98,331.88 813.34,374.40 813.70,346.44 814.06,367.83 814.42,334.96 814.78,277.63 815.14,283.57 815.50,287.92 815.86,292.69 816.22,319.58 816.58,298.56 816.94,289.66 817.30,302.85 817.66,298.92 818.02,294.36 818.38,322.09 818.74,350.67 819.10,311.73 819.46,307.52 819.82,362.95 820.18,362.81 820.54,323.91 820.90,317.64 821.26,296.50 821.62,316.24 821.98,273.54 822.34,283.40 822.70,315.11 823.06,321.14 823.42,314.00 823.78,309.18 824.14,307.81 824.50,266.25 824.86,246.72 825.22,270.27 825.58,330.35 825.94,337.41 826.30,303.03 826.66,289.13 827.02,303.38 827.38,286.96 827.74,273.35 828.10,234.60 828.46,250.39 828.82,301.32 829.18,342.43 829.54,340.77 829.90,362.06 830.26,327.00 830.62,303.63 830.98,309.80 831.34,347.71 831.70,316.14 832.06,302.63 832.42,286.70 832.79,298.63 833.15,320.83 833.51,249.31 833.87,243.31 834.23,276.39 834.59,290.32 834.95,305.71 835.31,316.07 835.67,308.10 836.03,366.40 836.39,326.78 836.75,344.78 837.11,360.80 837.47,364.95 837.83,299.55 838.19,304.99 838.55,364.75 838.91,346.09 839.27,430.50 839.63,297.36 839.99,299.61 840.35,345.21 840.71,266.05 841.07,207.02 841.43,157.61 841.79,162.03 842.15,229.30 842.51,275.15 842.87,321.53 843.23,294.92 843.59,329.67 843.95,356.48 844.31,304.12 844.67,298.79 845.03,355.24 845.39,307.20 845.75,296.83 846.11,294.23 846.47,264.16 846.83,259.24 847.19,305.21 847.55,292.93 847.91,294.57 848.27,331.15 848.63,296.46 848.99,304.37 849.35,344.86 849.71,345.14 850.07,320.18 850.43,291.38 850.79,301.13 851.15,315.04 851.51,297.57 851.87,337.23 852.23,291.05 852.59,257.58 852.95,262.85 853.31,312.07 853.67,304.50 854.03,343.75 854.39,287.73 854.75,253.18 855.11,267.75 855.47,330.72 855.83,303.54 856.19,294.70 856.55,309.02 856.91,321.05 857.27,319.32 857.64,349.63 858.00,312.33 858.36,286.63 858.72,287.64 859.08,303.12 859.44,311.07 859.80,326.67 860.16,333.14 860.52,315.42 860.88,363.90 861.24,299.94 861.60,316.50 861.96,366.31 862.32,360.63 862.68,334.90 863.04,328.55 863.40,332.00 863.76,290.51 864.12,285.48 864.48,328.37 864.84,383.14 865.20,310.16 865.56,296.86 865.92,343.98 866.28,352.21 866.64,379.14 867.00,310.93 867.36,291.16 867.72,278.84 868.08,272.86 868.44,284.54 868.80,338.21 869.16,324.86 869.52,328.42 869.88,375.24 870.24,419.76 870.60,386.18 870.96,381.57 871.32,364.95 871.68,332.51 872.04,340.02 872.40,347.60 872.76,287.59 873.12,277.20 873.48,312.44 873.84,369.80 874.20,323.56 874.56,334.45 874.92,365.02 875.28,308.56 875.64,278.72 876.00,284.81 876.36,316.00 876.72,297.52 877.08,268.22 877.44,272.77 877.80,320.89 878.16,340.02 878.52,307.14 878.88,295.60 879.24,304.33 879.60,319.96 879.96,344.98 880.32,407.69 880.68,360.09 881.04,332.63 881.40,321.26 881.76,292.81 882.12,295.70 882.48,315.12 882.85,278.53 883.21,268.36 883.57,325.77 883.93,310.52 884.29,330.96 884.65,295.69 885.01,259.97 885.37,260.19 885.73,303.99 886.09,321.45 886.45,265.60 886.81,256.02 887.17,301.31 887.53,300.75 887.89,230.54 888.25,196.35 888.61,211.70 888.97,309.67 889.33,298.67 889.69,293.68 890.05,304.44 890.41,343.90 890.77,328.89 891.13,289.18 891.49,306.86 891.85,344.19 892.21,332.94 892.57,302.48 892.93,257.35 893.29,258.53 893.65,311.39 894.01,317.49 894.37,320.49 894.73,302.50 895.09,323.24 895.45,287.67 895.81,288.54 896.17,290.36 896.53,276.14 896.89,311.37 897.25,334.04 897.61,300.87 897.97,283.88 898.33,302.44 898.69,285.74 899.05,282.79 899.41,312.33 899.77,330.08 900.13,310.81 900.49,233.40 900.85,200.64 901.21,217.16 901.57,305.77 901.93,313.96 902.29,289.92 902.65,288.30 903.01,312.81 903.37,296.03 903.73,283.39 904.09,342.85 904.45,304.95 904.81,288.27 905.17,329.62 905.53,303.82 905.89,315.81 906.25,402.34 906.61,324.90 906.97,278.81 907.33,275.40 907.70,319.12 908.06,345.91 908.42,317.08 908.78,342.12 909.14,302.96 909.50,280.94 909.86,196.51 910.22,177.49 910.58,207.03 910.94,292.25 911.30,296.08 911.66,325.15 912.02,316.62 912.38,309.69 912.74,280.43 913.10,283.90 913.46,333.96 913.82,344.45 914.18,320.43 914.54,343.33 914.90,353.36 915.26,325.15 915.62,321.40 915.98,316.46 916.34,296.30 916.70,319.14 917.06,244.44 917.42,233.99 917.78,287.64 918.14,281.70 918.50,271.99 918.86,293.09 919.22,339.62 919.58,337.59 919.94,350.69 920.30,338.29 920.66,294.78 921.02,273.65 921.38,282.90 921.74,297.75 922.10,325.06 922.46,254.83 922.82,230.58 923.18,248.49 923.54,307.00 923.90,317.18 924.26,293.74 924.62,300.32 924.98,339.09 925.34,299.20 925.70,277.09 926.06,303.00 926.42,358.79 926.78,258.56 927.14,219.71 927.50,229.04 927.86,305.29 928.22,308.24 928.58,270.45 928.94,296.77 929.30,369.67 929.66,331.99 930.02,326.45 930.38,324.67 930.74,277.53 931.10,257.69 931.46,286.47 931.82,287.79 932.18,271.22 932.55,295.74 932.91,340.59 933.27,350.83 933.63,343.87 933.99,348.81 934.35,423.27 934.71,337.83 935.07,313.95 935.43,326.43 935.79,353.86 936.15,334.33 936.51,314.69 936.87,331.07 937.23,335.23 937.59,354.98 937.95,350.52 938.31,357.82 938.67,348.10 939.03,267.33 939.39,252.53 939.75,288.97 940.11,314.11 940.47,315.24 940.83,302.76 941.19,292.02 941.55,326.48 941.91,325.89 942.27,308.89 942.63,287.98 942.99,280.77 943.35,316.58 943.71,289.25 944.07,312.43 944.43,261.01 944.79,280.52 945.15,335.63 945.51,351.32 945.87,339.12 946.23,366.77 946.59,290.58 946.95,248.12 947.31,247.90 947.67,290.15 948.03,300.13 948.39,272.93 948.75,290.36 949.11,323.79 949.47,308.48 949.83,323.24 950.19,389.92 950.55,348.54 950.91,301.16 951.27,298.64 951.63,341.47 951.99,325.35 952.35,287.76 952.71,294.59 953.07,345.69 953.43,300.84 953.79,269.08 954.15,272.82 954.51,295.11 954.87,392.68 955.23,353.27 955.59,365.57 955.95,321.21 956.31,333.59 956.67,350.49 957.03,348.53 957.39,343.93 957.76,309.23 958.12,291.19 958.48,303.58 958.84,326.91 959.20,317.02 959.56,306.38 959.92,284.26 960.28,287.10 960.64,327.97 961.00,350.59 961.36,316.01 961.72,300.97 962.08,288.11 962.44,299.85 962.80,268.40 963.16,260.96 963.52,299.26 963.88,334.49 964.24,304.89 964.60,299.87 964.96,313.77 965.32,317.29 965.68,328.40 966.04,371.06 966.40,398.19 966.76,328.89 967.12,332.31 967.48,383.74 967.84,355.32 968.20,323.09 968.56,357.34 968.92,426.32 969.28,358.85 969.64,326.75 970.00,290.86" fill="none" stroke="#275d8c" stroke-width="1.5"/>
  <text x="70" y="536" font-family="Arial, sans-serif" font-size="12" fill="#1f2933">frecuencia normalizada por paso par; max=0.249950</text>
  <text x="16" y="53" font-family="Arial, sans-serif" font-size="12" fill="#1f2933" transform="rotate(-90 16,53)">log10(potencia + 1); max=10.140</text>
</svg>
